<svg width="159" height="28" viewBox="0 0 159 28" fill="none" xmlns="http://www.w3.org/2000/svg">
<path d="M0 1H159V28H0V1Z" fill="white"/>
<path d="M53.4972 21V8.63636H57.6747C58.6446 8.63636 59.4375 8.81143 60.0533 9.16158C60.6731 9.50769 61.1319 9.97656 61.4297 10.5682C61.7275 11.1598 61.8764 11.8198 61.8764 12.5483C61.8764 13.2768 61.7275 13.9388 61.4297 14.5344C61.1359 15.1301 60.6811 15.605 60.0653 15.9592C59.4496 16.3093 58.6607 16.4844 57.6989 16.4844H54.7045V15.1562H57.6506C58.3146 15.1562 58.8479 15.0415 59.2504 14.8121C59.6528 14.5827 59.9446 14.2728 60.1257 13.8825C60.3108 13.488 60.4034 13.0433 60.4034 12.5483C60.4034 12.0533 60.3108 11.6106 60.1257 11.2202C59.9446 10.8298 59.6508 10.5239 59.2443 10.3026C58.8378 10.0772 58.2985 9.96449 57.6264 9.96449H54.9943V21H53.4972ZM64.455 21V11.7273H65.8314V13.1278H65.928C66.097 12.669 66.4029 12.2968 66.8456 12.011C67.2883 11.7253 67.7874 11.5824 68.3428 11.5824C68.4474 11.5824 68.5782 11.5844 68.7352 11.5884C68.8921 11.5924 69.0109 11.5985 69.0914 11.6065V13.0554C69.0431 13.0433 68.9324 13.0252 68.7593 13.0011C68.5903 12.9729 68.4112 12.9588 68.222 12.9588C67.7713 12.9588 67.3688 13.0534 67.0147 13.2425C66.6645 13.4277 66.3868 13.6853 66.1816 14.0153C65.9803 14.3413 65.8797 14.7135 65.8797 15.1321V21H64.455ZM71.1402 21V11.7273H72.5649V21H71.1402ZM71.8646 10.1818C71.5869 10.1818 71.3475 10.0872 71.1462 9.89808C70.949 9.70893 70.8504 9.48153 70.8504 9.21591C70.8504 8.95028 70.949 8.72289 71.1462 8.53374C71.3475 8.34458 71.5869 8.25 71.8646 8.25C72.1423 8.25 72.3798 8.34458 72.577 8.53374C72.7782 8.72289 72.8788 8.95028 72.8788 9.21591C72.8788 9.48153 72.7782 9.70893 72.577 9.89808C72.3798 10.0872 72.1423 10.1818 71.8646 10.1818ZM79.3014 21.1932C78.4321 21.1932 77.6835 20.9879 77.0557 20.5774C76.4278 20.1669 75.9449 19.6014 75.6068 18.881C75.2687 18.1606 75.0997 17.3376 75.0997 16.4119C75.0997 15.4702 75.2728 14.6391 75.6189 13.9187C75.969 13.1942 76.456 12.6288 77.0798 12.2223C77.7077 11.8118 78.4401 11.6065 79.2773 11.6065C79.9293 11.6065 80.5168 11.7273 81.04 11.9688C81.5633 12.2102 81.9919 12.5483 82.3259 12.983C82.66 13.4176 82.8672 13.9247 82.9477 14.5043H81.523C81.4143 14.0817 81.1729 13.7074 80.7986 13.3814C80.4283 13.0514 79.9293 12.8864 79.3014 12.8864C78.746 12.8864 78.259 13.0312 77.8405 13.321C77.4259 13.6068 77.102 14.0112 76.8685 14.5344C76.6391 15.0536 76.5244 15.6634 76.5244 16.3636C76.5244 17.08 76.6371 17.7038 76.8625 18.2351C77.0919 18.7663 77.4139 19.1789 77.8284 19.4727C78.247 19.7665 78.738 19.9134 79.3014 19.9134C79.6717 19.9134 80.0077 19.849 80.3096 19.7202C80.6114 19.5914 80.867 19.4062 81.0763 19.1648C81.2856 18.9233 81.4345 18.6335 81.523 18.2955H82.9477C82.8672 18.8428 82.668 19.3358 82.3501 19.7745C82.0361 20.2092 81.6196 20.5553 81.1004 20.8129C80.5853 21.0664 79.9856 21.1932 79.3014 21.1932ZM89.2782 21.1932C88.3848 21.1932 87.6141 20.996 86.9661 20.6016C86.3222 20.2031 85.8251 19.6477 85.475 18.9354C85.1289 18.219 84.9558 17.3859 84.9558 16.4361C84.9558 15.4863 85.1289 14.6491 85.475 13.9247C85.8251 13.1963 86.3121 12.6288 86.9359 12.2223C87.5638 11.8118 88.2962 11.6065 89.1334 11.6065C89.6163 11.6065 90.0932 11.687 90.5641 11.848C91.035 12.009 91.4636 12.2706 91.85 12.6328C92.2363 12.991 92.5442 13.4659 92.7736 14.0575C93.003 14.6491 93.1177 15.3776 93.1177 16.2429V16.8466H85.97V15.6151H91.6689C91.6689 15.0919 91.5642 14.625 91.3549 14.2145C91.1497 13.804 90.8559 13.48 90.4736 13.2425C90.0952 13.0051 89.6485 12.8864 89.1334 12.8864C88.5659 12.8864 88.0749 13.0272 87.6603 13.3089C87.2498 13.5866 86.9339 13.9489 86.7125 14.3956C86.4912 14.8423 86.3805 15.3213 86.3805 15.8324V16.6534C86.3805 17.3537 86.5013 17.9473 86.7427 18.4343C86.9882 18.9173 87.3283 19.2855 87.763 19.5391C88.1976 19.7886 88.7027 19.9134 89.2782 19.9134C89.6525 19.9134 89.9906 19.861 90.2924 19.7564C90.5983 19.6477 90.8619 19.4867 91.0833 19.2734C91.3046 19.0561 91.4757 18.7865 91.5964 18.4645L92.9728 18.8509C92.828 19.3177 92.5845 19.7282 92.2424 20.0824C91.9003 20.4325 91.4777 20.7062 90.9746 20.9034C90.4715 21.0966 89.9061 21.1932 89.2782 21.1932ZM100.979 21V8.63636H105.157C106.127 8.63636 106.92 8.81143 107.536 9.16158C108.155 9.50769 108.614 9.97656 108.912 10.5682C109.21 11.1598 109.359 11.8198 109.359 12.5483C109.359 13.2768 109.21 13.9388 108.912 14.5344C108.618 15.1301 108.163 15.605 107.548 15.9592C106.932 16.3093 106.143 16.4844 105.181 16.4844H102.187V15.1562H105.133C105.797 15.1562 106.33 15.0415 106.733 14.8121C107.135 14.5827 107.427 14.2728 107.608 13.8825C107.793 13.488 107.886 13.0433 107.886 12.5483C107.886 12.0533 107.793 11.6106 107.608 11.2202C107.427 10.8298 107.133 10.5239 106.727 10.3026C106.32 10.0772 105.781 9.96449 105.109 9.96449H102.477V21H100.979ZM113.362 8.63636V21H111.937V8.63636H113.362ZM119.06 21.2173C118.473 21.2173 117.939 21.1067 117.46 20.8853C116.981 20.6599 116.601 20.3359 116.319 19.9134C116.038 19.4867 115.897 18.9716 115.897 18.3679C115.897 17.8366 116.001 17.406 116.211 17.076C116.42 16.742 116.7 16.4804 117.05 16.2912C117.4 16.102 117.786 15.9612 118.209 15.8686C118.636 15.772 119.064 15.6955 119.495 15.6392C120.058 15.5668 120.515 15.5124 120.865 15.4762C121.219 15.436 121.477 15.3696 121.638 15.277C121.803 15.1844 121.885 15.0234 121.885 14.794V14.7457C121.885 14.1501 121.722 13.6873 121.396 13.3572C121.074 13.0272 120.585 12.8622 119.929 12.8622C119.249 12.8622 118.716 13.0111 118.33 13.3089C117.943 13.6068 117.672 13.9247 117.515 14.2628L116.162 13.7798C116.404 13.2164 116.726 12.7777 117.128 12.4638C117.535 12.1458 117.978 11.9245 118.456 11.7997C118.939 11.6709 119.414 11.6065 119.881 11.6065C120.179 11.6065 120.521 11.6428 120.907 11.7152C121.298 11.7836 121.674 11.9265 122.036 12.1438C122.403 12.3612 122.706 12.6892 122.948 13.1278C123.189 13.5665 123.31 14.1541 123.31 14.8906V21H121.885V19.7443H121.813C121.716 19.9455 121.555 20.1609 121.33 20.3903C121.105 20.6197 120.805 20.8149 120.431 20.9759C120.056 21.1368 119.599 21.2173 119.06 21.2173ZM119.277 19.9375C119.841 19.9375 120.316 19.8268 120.702 19.6055C121.093 19.3841 121.386 19.0984 121.584 18.7482C121.785 18.3981 121.885 18.0298 121.885 17.6435V16.3395C121.825 16.4119 121.692 16.4783 121.487 16.5387C121.286 16.5951 121.052 16.6454 120.787 16.6896C120.525 16.7299 120.27 16.7661 120.02 16.7983C119.775 16.8265 119.575 16.8506 119.422 16.8707C119.052 16.919 118.706 16.9975 118.384 17.1062C118.066 17.2108 117.808 17.3698 117.611 17.5831C117.418 17.7924 117.321 18.0781 117.321 18.4403C117.321 18.9354 117.505 19.3097 117.871 19.5632C118.241 19.8127 118.71 19.9375 119.277 19.9375ZM127.695 15.4219V21H126.271V11.7273H127.647V13.1761H127.768C127.985 12.7053 128.315 12.3269 128.758 12.0412C129.2 11.7514 129.772 11.6065 130.472 11.6065C131.1 11.6065 131.649 11.7353 132.12 11.9929C132.591 12.2464 132.957 12.6328 133.219 13.152C133.481 13.6671 133.611 14.3191 133.611 15.108V21H132.187V15.2045C132.187 14.4761 131.998 13.9086 131.619 13.5021C131.241 13.0916 130.722 12.8864 130.062 12.8864C129.607 12.8864 129.2 12.985 128.842 13.1822C128.488 13.3794 128.208 13.6671 128.003 14.0455C127.798 14.4238 127.695 14.8826 127.695 15.4219Z" fill="#1C2752"/>
<path d="M38 12.1683V24.1649C38 24.5074 37.945 24.8465 37.8382 25.1629C37.7315 25.4793 37.5749 25.7668 37.3776 26.009C37.1803 26.2511 36.946 26.4433 36.6882 26.5742C36.4304 26.7053 36.1541 26.7728 35.875 26.7728H23.125C22.5614 26.7728 22.0209 26.498 21.6224 26.009C21.2239 25.5199 21 24.8566 21 24.1649V8.51713C21 7.82546 21.2239 7.16211 21.6224 6.67303C22.0209 6.18394 22.5614 5.90918 23.125 5.90918H32.0224" stroke="#FFB342" stroke-width="2" stroke-linecap="round" stroke-linejoin="round"/>
<path d="M41.7779 1.35235C41.698 1.2446 41.6011 1.15785 41.4931 1.09734C41.3851 1.03683 41.2682 1.00383 41.1496 1.00031C41.0309 0.996801 40.9128 1.02286 40.8026 1.0769C40.6923 1.13095 40.5921 1.21187 40.5081 1.31477L39.8316 2.1409C39.7496 2.24158 39.7036 2.37808 39.7036 2.52042C39.7036 2.66275 39.7496 2.79926 39.8316 2.89993L40.4518 3.65962C40.4924 3.70974 40.5407 3.74951 40.5939 3.77666C40.6472 3.80379 40.7042 3.81776 40.7618 3.81776C40.8195 3.81776 40.8765 3.80379 40.9297 3.77666C40.9829 3.74951 41.0313 3.70974 41.0719 3.65962L41.7314 2.85429C42.065 2.44559 42.0962 1.77985 41.7779 1.35235ZM38.4639 3.81868L28.5918 15.9121C28.5319 15.9852 28.4884 16.0761 28.4655 16.1758L28.0088 17.8448C27.9979 17.8901 27.9971 17.9382 28.0066 17.984C28.0161 18.0298 28.0354 18.0716 28.0626 18.105C28.0899 18.1384 28.1239 18.1622 28.1612 18.1737C28.1985 18.1854 28.2377 18.1844 28.2746 18.171L29.6336 17.6106C29.7149 17.5824 29.7889 17.529 29.8485 17.4556L39.7031 5.3394C39.7943 5.22632 39.8454 5.07367 39.8454 4.9146C39.8454 4.75552 39.7943 4.60287 39.7031 4.48979L39.159 3.81868C39.0667 3.70577 38.9417 3.64237 38.8114 3.64237C38.6811 3.64237 38.5562 3.70577 38.4639 3.81868Z" fill="#FFB342"/>
</svg>
