<svg width="134" height="28" viewBox="0 0 134 28" fill="none" xmlns="http://www.w3.org/2000/svg">
<path d="M0 1H134V28H0V1Z" fill="#F4F4F4"/>
<path d="M38 12.1683V24.1649C38 24.5074 37.945 24.8465 37.8382 25.1629C37.7315 25.4793 37.5749 25.7668 37.3776 26.009C37.1803 26.2511 36.946 26.4433 36.6882 26.5742C36.4304 26.7053 36.1541 26.7728 35.875 26.7728H23.125C22.5614 26.7728 22.0209 26.498 21.6224 26.009C21.2239 25.5199 21 24.8566 21 24.1649V8.51713C21 7.82546 21.2239 7.16211 21.6224 6.67303C22.0209 6.18394 22.5614 5.90918 23.125 5.90918H32.0224" stroke="#FFB342" stroke-width="2" stroke-linecap="round" stroke-linejoin="round"/>
<path d="M41.7779 1.35235C41.698 1.2446 41.6011 1.15785 41.4931 1.09734C41.3851 1.03683 41.2682 1.00383 41.1496 1.00031C41.0309 0.996801 40.9128 1.02286 40.8026 1.0769C40.6923 1.13095 40.5921 1.21187 40.5081 1.31477L39.8316 2.1409C39.7496 2.24158 39.7036 2.37808 39.7036 2.52042C39.7036 2.66275 39.7496 2.79926 39.8316 2.89993L40.4518 3.65962C40.4924 3.70974 40.5407 3.74951 40.5939 3.77666C40.6472 3.80379 40.7042 3.81776 40.7618 3.81776C40.8195 3.81776 40.8765 3.80379 40.9297 3.77666C40.9829 3.74951 41.0313 3.70974 41.0719 3.65962L41.7314 2.85429C42.065 2.44559 42.0962 1.77985 41.7779 1.35235ZM38.4639 3.81868L28.5918 15.9121C28.5319 15.9852 28.4884 16.0761 28.4655 16.1758L28.0088 17.8448C27.9979 17.8901 27.9971 17.9382 28.0066 17.984C28.0161 18.0298 28.0354 18.0716 28.0626 18.105C28.0899 18.1384 28.1239 18.1622 28.1612 18.1737C28.1985 18.1854 28.2377 18.1844 28.2746 18.171L29.6336 17.6106C29.7149 17.5824 29.7889 17.529 29.8485 17.4556L39.7031 5.3394C39.7943 5.22632 39.8454 5.07367 39.8454 4.9146C39.8454 4.75552 39.7943 4.60287 39.7031 4.48979L39.159 3.81868C39.0667 3.70577 38.9417 3.64237 38.8114 3.64237C38.6811 3.64237 38.5562 3.70577 38.4639 3.81868Z" fill="#FFB342"/>
<path d="M64.8333 12H63.248C63.1543 11.544 62.9902 11.1435 62.7558 10.7983C62.5257 10.4531 62.2445 10.1634 61.9121 9.92898C61.584 9.69034 61.2196 9.51136 60.8191 9.39205C60.4185 9.27273 60.0009 9.21307 59.5662 9.21307C58.7736 9.21307 58.0556 9.41335 57.4121 9.81392C56.7729 10.2145 56.2637 10.8047 55.8844 11.5845C55.5094 12.3643 55.3219 13.321 55.3219 14.4545C55.3219 15.5881 55.5094 16.5447 55.8844 17.3246C56.2637 18.1044 56.7729 18.6946 57.4121 19.0952C58.0556 19.4957 58.7736 19.696 59.5662 19.696C60.0009 19.696 60.4185 19.6364 60.8191 19.517C61.2196 19.3977 61.584 19.2209 61.9121 18.9865C62.2445 18.7479 62.5257 18.456 62.7558 18.1108C62.9902 17.7614 63.1543 17.3608 63.248 16.9091H64.8333C64.7139 17.5781 64.4966 18.1768 64.1813 18.7053C63.8659 19.2337 63.4739 19.6832 63.0051 20.054C62.5364 20.4205 62.0101 20.6996 61.4263 20.8913C60.8468 21.0831 60.2267 21.179 59.5662 21.179C58.4497 21.179 57.4568 20.9062 56.5875 20.3608C55.7182 19.8153 55.0343 19.0398 54.5357 18.0341C54.0371 17.0284 53.7878 15.8352 53.7878 14.4545C53.7878 13.0739 54.0371 11.8807 54.5357 10.875C55.0343 9.86932 55.7182 9.09375 56.5875 8.5483C57.4568 8.00284 58.4497 7.73011 59.5662 7.73011C60.2267 7.73011 60.8468 7.82599 61.4263 8.01776C62.0101 8.20952 62.5364 8.49077 63.0051 8.86151C63.4739 9.22798 63.8659 9.67543 64.1813 10.2038C64.4966 10.728 64.7139 11.3267 64.8333 12ZM69.0589 7.90909V21H67.5503V7.90909H69.0589ZM72.1818 21V11.1818H73.6903V21H72.1818ZM72.9489 9.54545C72.6548 9.54545 72.4013 9.44531 72.1882 9.24503C71.9794 9.04474 71.875 8.80398 71.875 8.52273C71.875 8.24148 71.9794 8.00071 72.1882 7.80043C72.4013 7.60014 72.6548 7.5 72.9489 7.5C73.2429 7.5 73.4943 7.60014 73.7031 7.80043C73.9162 8.00071 74.0227 8.24148 74.0227 8.52273C74.0227 8.80398 73.9162 9.04474 73.7031 9.24503C73.4943 9.44531 73.2429 9.54545 72.9489 9.54545ZM80.9298 21.2045C79.9838 21.2045 79.1677 20.9957 78.4816 20.5781C77.7998 20.1562 77.2735 19.5682 76.9028 18.8139C76.5363 18.0554 76.3531 17.1733 76.3531 16.1676C76.3531 15.1619 76.5363 14.2756 76.9028 13.5085C77.2735 12.7372 77.7892 12.1364 78.4497 11.706C79.1144 11.2713 79.89 11.054 80.7764 11.054C81.2877 11.054 81.7927 11.1392 82.2913 11.3097C82.7899 11.4801 83.2437 11.7571 83.6528 12.1406C84.0619 12.5199 84.3879 13.0227 84.6308 13.6491C84.8737 14.2756 84.9951 15.0469 84.9951 15.9631V16.6023H77.4269V15.2983H83.461C83.461 14.7443 83.3502 14.25 83.1286 13.8153C82.9113 13.3807 82.6002 13.0376 82.1954 12.7862C81.7948 12.5348 81.3218 12.4091 80.7764 12.4091C80.1755 12.4091 79.6556 12.5582 79.2167 12.8565C78.782 13.1506 78.4475 13.5341 78.2132 14.0071C77.9788 14.4801 77.8616 14.9872 77.8616 15.5284V16.3977C77.8616 17.1392 77.9894 17.7678 78.2451 18.2834C78.5051 18.7947 78.8651 19.1847 79.3254 19.4531C79.7856 19.7173 80.3204 19.8494 80.9298 19.8494C81.3261 19.8494 81.684 19.794 82.0036 19.6832C82.3275 19.5682 82.6066 19.3977 82.841 19.1719C83.0754 18.9418 83.2565 18.6562 83.3843 18.3153L84.8417 18.7244C84.6883 19.2188 84.4305 19.6534 84.0683 20.0284C83.7061 20.3991 83.2586 20.6889 82.7259 20.8977C82.1933 21.1023 81.5945 21.2045 80.9298 21.2045ZM89.1584 15.0938V21H87.6499V11.1818H89.1072V12.7159H89.2351C89.4652 12.2173 89.8146 11.8168 90.2834 11.5142C90.7521 11.2074 91.3572 11.054 92.0987 11.054C92.7635 11.054 93.3452 11.1903 93.8438 11.4631C94.3423 11.7315 94.7301 12.1406 95.0071 12.6903C95.2841 13.2358 95.4226 13.9261 95.4226 14.7614V21H93.9141V14.8636C93.9141 14.0923 93.7138 13.4915 93.3132 13.0611C92.9126 12.6264 92.3629 12.4091 91.6641 12.4091C91.1825 12.4091 90.7521 12.5135 90.3729 12.7223C89.9979 12.9311 89.7017 13.2358 89.4844 13.6364C89.267 14.0369 89.1584 14.5227 89.1584 15.0938ZM102.809 11.1818V12.4602H97.721V11.1818H102.809ZM99.2039 8.82955H100.712V18.1875C100.712 18.6136 100.774 18.9332 100.898 19.1463C101.026 19.3551 101.188 19.4957 101.384 19.5682C101.584 19.6364 101.795 19.6705 102.016 19.6705C102.183 19.6705 102.319 19.6619 102.426 19.6449C102.532 19.6236 102.617 19.6065 102.681 19.5938L102.988 20.9489C102.886 20.9872 102.743 21.0256 102.56 21.0639C102.377 21.1065 102.144 21.1278 101.863 21.1278C101.437 21.1278 101.019 21.0362 100.61 20.853C100.205 20.6697 99.8687 20.3906 99.6002 20.0156C99.336 19.6406 99.2039 19.1676 99.2039 18.5966V8.82955ZM112.217 13.3807L110.862 13.7642C110.777 13.5384 110.651 13.3189 110.485 13.1058C110.323 12.8885 110.101 12.7095 109.82 12.5689C109.539 12.4283 109.179 12.358 108.74 12.358C108.139 12.358 107.638 12.4964 107.238 12.7734C106.841 13.0462 106.643 13.3935 106.643 13.8153C106.643 14.1903 106.779 14.4865 107.052 14.7038C107.325 14.9212 107.751 15.1023 108.331 15.2472L109.788 15.6051C110.666 15.8182 111.32 16.1442 111.75 16.5831C112.181 17.0178 112.396 17.5781 112.396 18.2642C112.396 18.8267 112.234 19.3295 111.91 19.7727C111.591 20.2159 111.143 20.5653 110.568 20.821C109.993 21.0767 109.324 21.2045 108.561 21.2045C107.559 21.2045 106.73 20.9872 106.074 20.5526C105.418 20.1179 105.002 19.483 104.828 18.6477L106.26 18.2898C106.396 18.8182 106.654 19.2145 107.033 19.4787C107.417 19.7429 107.917 19.875 108.535 19.875C109.238 19.875 109.797 19.7259 110.21 19.4276C110.627 19.125 110.836 18.7628 110.836 18.3409C110.836 18 110.717 17.7145 110.478 17.4844C110.24 17.25 109.873 17.0753 109.379 16.9602L107.743 16.5767C106.843 16.3636 106.183 16.0334 105.761 15.5859C105.343 15.1342 105.135 14.5696 105.135 13.892C105.135 13.3381 105.29 12.848 105.601 12.4219C105.917 11.9957 106.345 11.6612 106.886 11.4183C107.431 11.1754 108.049 11.054 108.74 11.054C109.711 11.054 110.474 11.267 111.028 11.6932C111.586 12.1193 111.983 12.6818 112.217 13.3807Z" fill="#1C2752"/>
</svg>
