<svg width="173" height="28" viewBox="0 0 173 28" fill="none" xmlns="http://www.w3.org/2000/svg">
<path d="M0 0H173V27H0V0Z" fill="#F4F4F4"/>
<path d="M52.9306 8.31534V6.90909H62.7488V8.31534H58.6324V20H57.0471V8.31534H52.9306ZM66.8594 14.0938V20H65.3508V6.90909H66.8594V11.7159H66.9872C67.2173 11.2088 67.5625 10.8061 68.0227 10.5078C68.4872 10.2053 69.1051 10.054 69.8764 10.054C70.5454 10.054 71.1314 10.1882 71.6342 10.4567C72.1371 10.7209 72.527 11.1278 72.804 11.6776C73.0852 12.223 73.2258 12.9176 73.2258 13.7614V20H71.7173V13.8636C71.7173 13.0838 71.5149 12.4808 71.1101 12.0547C70.7095 11.6243 70.1534 11.4091 69.4417 11.4091C68.9474 11.4091 68.5042 11.5135 68.1122 11.7223C67.7244 11.9311 67.4176 12.2358 67.1917 12.6364C66.9702 13.0369 66.8594 13.5227 66.8594 14.0938ZM80.4621 20.2045C79.5161 20.2045 78.7 19.9957 78.0139 19.5781C77.3321 19.1562 76.8058 18.5682 76.4351 17.8139C76.0686 17.0554 75.8854 16.1733 75.8854 15.1676C75.8854 14.1619 76.0686 13.2756 76.4351 12.5085C76.8058 11.7372 77.3215 11.1364 77.982 10.706C78.6467 10.2713 79.4223 10.054 80.3087 10.054C80.82 10.054 81.325 10.1392 81.8236 10.3097C82.3222 10.4801 82.776 10.7571 83.1851 11.1406C83.5942 11.5199 83.9202 12.0227 84.1631 12.6491C84.406 13.2756 84.5274 14.0469 84.5274 14.9631V15.6023H76.9592V14.2983H82.9933C82.9933 13.7443 82.8825 13.25 82.6609 12.8153C82.4436 12.3807 82.1325 12.0376 81.7277 11.7862C81.3271 11.5348 80.8541 11.4091 80.3087 11.4091C79.7078 11.4091 79.1879 11.5582 78.749 11.8565C78.3144 12.1506 77.9798 12.5341 77.7455 13.0071C77.5111 13.4801 77.3939 13.9872 77.3939 14.5284V15.3977C77.3939 16.1392 77.5217 16.7678 77.7774 17.2834C78.0374 17.7947 78.3975 18.1847 78.8577 18.4531C79.3179 18.7173 79.8527 18.8494 80.4621 18.8494C80.8584 18.8494 81.2163 18.794 81.5359 18.6832C81.8598 18.5682 82.1389 18.3977 82.3733 18.1719C82.6077 17.9418 82.7888 17.6562 82.9166 17.3153L84.374 17.7244C84.2206 18.2188 83.9628 18.6534 83.6006 19.0284C83.2384 19.3991 82.7909 19.6889 82.2582 19.8977C81.7256 20.1023 81.1269 20.2045 80.4621 20.2045ZM101.758 11C101.617 10.5696 101.432 10.1839 101.202 9.84304C100.976 9.49787 100.706 9.20383 100.39 8.96094C100.079 8.71804 99.7254 8.53267 99.3291 8.40483C98.9328 8.27699 98.4981 8.21307 98.0251 8.21307C97.2496 8.21307 96.5443 8.41335 95.9094 8.81392C95.2744 9.21449 94.7694 9.80469 94.3944 10.5845C94.0194 11.3643 93.8319 12.321 93.8319 13.4545C93.8319 14.5881 94.0216 15.5447 94.4008 16.3246C94.7801 17.1044 95.2936 17.6946 95.9413 18.0952C96.589 18.4957 97.3177 18.696 98.1274 18.696C98.8774 18.696 99.5379 18.5362 100.109 18.2166C100.684 17.8928 101.132 17.4368 101.451 16.8487C101.775 16.2564 101.937 15.5597 101.937 14.7585L102.423 14.8608H98.4853V13.4545H103.471V14.8608C103.471 15.9389 103.241 16.8764 102.781 17.6733C102.325 18.4702 101.694 19.0881 100.889 19.527C100.088 19.9616 99.1672 20.179 98.1274 20.179C96.9683 20.179 95.9498 19.9062 95.072 19.3608C94.1984 18.8153 93.5166 18.0398 93.0265 17.0341C92.5407 16.0284 92.2978 14.8352 92.2978 13.4545C92.2978 12.419 92.4363 11.4879 92.7133 10.6612C92.9946 9.83026 93.3909 9.12287 93.9023 8.53906C94.4136 7.95526 95.0187 7.50781 95.7176 7.19673C96.4165 6.88565 97.1856 6.73011 98.0251 6.73011C98.7155 6.73011 99.3589 6.83452 99.9555 7.04332C100.556 7.24787 101.091 7.53977 101.56 7.91903C102.033 8.29403 102.427 8.74361 102.742 9.26776C103.058 9.78764 103.275 10.3651 103.394 11H101.758ZM109.231 20.2301C108.609 20.2301 108.044 20.1129 107.537 19.8786C107.03 19.6399 106.627 19.2969 106.329 18.8494C106.031 18.3977 105.881 17.8523 105.881 17.2131C105.881 16.6506 105.992 16.1946 106.214 15.8452C106.435 15.4915 106.732 15.2145 107.102 15.0142C107.473 14.8139 107.882 14.6648 108.33 14.5668C108.781 14.4645 109.235 14.3835 109.691 14.3239C110.288 14.2472 110.771 14.1896 111.142 14.1513C111.517 14.1087 111.79 14.0384 111.96 13.9403C112.135 13.8423 112.222 13.6719 112.222 13.429V13.3778C112.222 12.7472 112.05 12.2571 111.705 11.9077C111.364 11.5582 110.846 11.3835 110.151 11.3835C109.431 11.3835 108.866 11.5412 108.457 11.8565C108.048 12.1719 107.761 12.5085 107.594 12.8665L106.163 12.3551C106.418 11.7585 106.759 11.294 107.185 10.9616C107.616 10.625 108.085 10.3906 108.592 10.2585C109.103 10.1222 109.606 10.054 110.1 10.054C110.415 10.054 110.778 10.0923 111.187 10.169C111.6 10.2415 111.999 10.3928 112.382 10.6229C112.77 10.853 113.092 11.2003 113.347 11.6648C113.603 12.1293 113.731 12.7514 113.731 13.5312V20H112.222V18.6705H112.146C112.043 18.8835 111.873 19.1115 111.634 19.3544C111.396 19.5973 111.078 19.804 110.682 19.9744C110.286 20.1449 109.802 20.2301 109.231 20.2301ZM109.461 18.875C110.058 18.875 110.56 18.7578 110.969 18.5234C111.383 18.2891 111.694 17.9865 111.903 17.6158C112.116 17.245 112.222 16.8551 112.222 16.446V15.0653C112.158 15.142 112.018 15.2124 111.8 15.2763C111.587 15.3359 111.34 15.3892 111.059 15.4361C110.782 15.4787 110.511 15.517 110.247 15.5511C109.987 15.581 109.776 15.6065 109.614 15.6278C109.222 15.679 108.856 15.7621 108.515 15.8771C108.178 15.9879 107.906 16.1562 107.697 16.3821C107.492 16.6037 107.39 16.9062 107.39 17.2898C107.39 17.8139 107.584 18.2102 107.972 18.4787C108.364 18.7429 108.86 18.875 109.461 18.875ZM118.353 6.90909V20H116.844V6.90909H118.353ZM122.984 6.90909V20H121.476V6.90909H122.984ZM130.224 20.2045C129.278 20.2045 128.462 19.9957 127.775 19.5781C127.094 19.1562 126.567 18.5682 126.197 17.8139C125.83 17.0554 125.647 16.1733 125.647 15.1676C125.647 14.1619 125.83 13.2756 126.197 12.5085C126.567 11.7372 127.083 11.1364 127.744 10.706C128.408 10.2713 129.184 10.054 130.07 10.054C130.582 10.054 131.087 10.1392 131.585 10.3097C132.084 10.4801 132.538 10.7571 132.947 11.1406C133.356 11.5199 133.682 12.0227 133.925 12.6491C134.168 13.2756 134.289 14.0469 134.289 14.9631V15.6023H126.721V14.2983H132.755C132.755 13.7443 132.644 13.25 132.423 12.8153C132.205 12.3807 131.894 12.0376 131.489 11.7862C131.089 11.5348 130.616 11.4091 130.07 11.4091C129.469 11.4091 128.949 11.5582 128.511 11.8565C128.076 12.1506 127.741 12.5341 127.507 13.0071C127.273 13.4801 127.155 13.9872 127.155 14.5284V15.3977C127.155 16.1392 127.283 16.7678 127.539 17.2834C127.799 17.7947 128.159 18.1847 128.619 18.4531C129.079 18.7173 129.614 18.8494 130.224 18.8494C130.62 18.8494 130.978 18.794 131.298 18.6832C131.621 18.5682 131.9 18.3977 132.135 18.1719C132.369 17.9418 132.55 17.6562 132.678 17.3153L134.136 17.7244C133.982 18.2188 133.724 18.6534 133.362 19.0284C133 19.3991 132.552 19.6889 132.02 19.8977C131.487 20.1023 130.888 20.2045 130.224 20.2045ZM136.944 20V10.1818H138.401V11.6648H138.503C138.682 11.179 139.006 10.7848 139.475 10.4822C139.944 10.1797 140.472 10.0284 141.06 10.0284C141.171 10.0284 141.309 10.0305 141.476 10.0348C141.642 10.0391 141.768 10.0455 141.853 10.054V11.5881C141.802 11.5753 141.684 11.5561 141.501 11.5305C141.322 11.5007 141.133 11.4858 140.932 11.4858C140.455 11.4858 140.029 11.5859 139.654 11.7862C139.283 11.9822 138.989 12.255 138.772 12.6044C138.559 12.9496 138.452 13.3437 138.452 13.7869V20H136.944ZM145.271 23.6818C145.016 23.6818 144.788 23.6605 144.587 23.6179C144.387 23.5795 144.249 23.5412 144.172 23.5028L144.556 22.1733C144.922 22.267 145.246 22.3011 145.527 22.2756C145.808 22.25 146.058 22.1243 146.275 21.8984C146.497 21.6768 146.699 21.3168 146.882 20.8182L147.163 20.0511L143.533 10.1818H145.169L147.879 18.0057H147.982L150.692 10.1818H152.328L148.161 21.4318C147.973 21.9389 147.741 22.3587 147.464 22.6911C147.187 23.0277 146.865 23.277 146.499 23.4389C146.136 23.6009 145.727 23.6818 145.271 23.6818Z" fill="#1C2752"/>
<path d="M38 11.1683V23.1649C38 23.5074 37.945 23.8465 37.8382 24.1629C37.7315 24.4793 37.5749 24.7668 37.3776 25.009C37.1803 25.2511 36.946 25.4433 36.6882 25.5742C36.4304 25.7053 36.1541 25.7728 35.875 25.7728H23.125C22.5614 25.7728 22.0209 25.498 21.6224 25.009C21.2239 24.5199 21 23.8566 21 23.1649V7.51713C21 6.82546 21.2239 6.16211 21.6224 5.67303C22.0209 5.18394 22.5614 4.90918 23.125 4.90918H32.0224" stroke="#FFB342" stroke-width="2" stroke-linecap="round" stroke-linejoin="round"/>
<path d="M41.7779 0.352351C41.698 0.244599 41.6011 0.157848 41.4931 0.0973406C41.3851 0.0368333 41.2682 0.0038261 41.1496 0.00031333C41.0309 -0.00319943 40.9128 0.0228553 40.8026 0.0769031C40.6923 0.130951 40.5921 0.21187 40.5081 0.31477L39.8316 1.1409C39.7496 1.24158 39.7036 1.37808 39.7036 1.52042C39.7036 1.66275 39.7496 1.79926 39.8316 1.89993L40.4518 2.65962C40.4924 2.70974 40.5407 2.74951 40.5939 2.77666C40.6472 2.80379 40.7042 2.81776 40.7618 2.81776C40.8195 2.81776 40.8765 2.80379 40.9297 2.77666C40.9829 2.74951 41.0313 2.70974 41.0719 2.65962L41.7314 1.85429C42.065 1.44559 42.0962 0.779847 41.7779 0.352351ZM38.4639 2.81868L28.5918 14.9121C28.5319 14.9852 28.4884 15.0761 28.4655 15.1758L28.0088 16.8448C27.9979 16.8901 27.9971 16.9382 28.0066 16.984C28.0161 17.0298 28.0354 17.0716 28.0626 17.105C28.0899 17.1384 28.1239 17.1622 28.1612 17.1737C28.1985 17.1854 28.2377 17.1844 28.2746 17.171L29.6336 16.6106C29.7149 16.5824 29.7889 16.529 29.8485 16.4556L39.7031 4.3394C39.7943 4.22632 39.8454 4.07367 39.8454 3.9146C39.8454 3.75552 39.7943 3.60287 39.7031 3.48979L39.159 2.81868C39.0667 2.70577 38.9417 2.64237 38.8114 2.64237C38.6811 2.64237 38.5562 2.70577 38.4639 2.81868Z" fill="#FFB342"/>
</svg>
