<svg width="154" height="28" viewBox="0 0 154 28" fill="none" xmlns="http://www.w3.org/2000/svg">
<path d="M19 12.1683V24.1649C19 24.5074 18.945 24.8465 18.8382 25.1629C18.7315 25.4793 18.5749 25.7668 18.3776 26.009C18.1803 26.2511 17.946 26.4433 17.6882 26.5742C17.4304 26.7053 17.1541 26.7728 16.875 26.7728H4.125C3.56141 26.7728 3.02091 26.498 2.6224 26.009C2.22388 25.5199 2 24.8566 2 24.1649V8.51713C2 7.82546 2.22388 7.16211 2.6224 6.67303C3.02091 6.18394 3.56141 5.90918 4.125 5.90918H13.0224" stroke="#FFB342" stroke-width="2" stroke-linecap="round" stroke-linejoin="round"/>
<path d="M22.7779 1.35235C22.698 1.2446 22.6011 1.15785 22.4931 1.09734C22.3851 1.03683 22.2682 1.00383 22.1496 1.00031C22.0309 0.996801 21.9128 1.02286 21.8026 1.0769C21.6923 1.13095 21.5921 1.21187 21.5081 1.31477L20.8316 2.1409C20.7496 2.24158 20.7036 2.37808 20.7036 2.52042C20.7036 2.66275 20.7496 2.79926 20.8316 2.89993L21.4518 3.65962C21.4924 3.70974 21.5407 3.74951 21.5939 3.77666C21.6472 3.80379 21.7042 3.81776 21.7618 3.81776C21.8195 3.81776 21.8765 3.80379 21.9297 3.77666C21.9829 3.74951 22.0313 3.70974 22.0719 3.65962L22.7314 2.85429C23.065 2.44559 23.0962 1.77985 22.7779 1.35235ZM19.4639 3.81868L9.59178 15.9121C9.53193 15.9852 9.48842 16.0761 9.46545 16.1758L9.00882 17.8448C8.99788 17.8901 8.9971 17.9382 9.00657 17.984C9.01605 18.0298 9.03541 18.0716 9.06263 18.105C9.08985 18.1384 9.12391 18.1622 9.16121 18.1737C9.19852 18.1854 9.23769 18.1844 9.2746 18.171L10.6336 17.6106C10.7149 17.5824 10.7889 17.529 10.8485 17.4556L20.7031 5.3394C20.7943 5.22632 20.8454 5.07367 20.8454 4.9146C20.8454 4.75552 20.7943 4.60287 20.7031 4.48979L20.159 3.81868C20.0667 3.70577 19.9417 3.64237 19.8114 3.64237C19.6811 3.64237 19.5562 3.70577 19.4639 3.81868Z" fill="#FFB342"/>
<path d="M44.2111 11.7273C44.1387 11.1155 43.8449 10.6406 43.3297 10.3026C42.8146 9.96449 42.1827 9.79545 41.4342 9.79545C40.8868 9.79545 40.4079 9.884 39.9974 10.0611C39.5909 10.2382 39.2729 10.4817 39.0435 10.7915C38.8181 11.1014 38.7055 11.4536 38.7055 11.848C38.7055 12.178 38.7839 12.4618 38.9409 12.6992C39.1019 12.9326 39.3071 13.1278 39.5567 13.2848C39.8062 13.4377 40.0678 13.5645 40.3415 13.6651C40.6151 13.7617 40.8667 13.8402 41.0961 13.9006L42.3518 14.2386C42.6737 14.3232 43.0319 14.4399 43.4263 14.5888C43.8248 14.7377 44.2051 14.9409 44.5673 15.1985C44.9336 15.4521 45.2354 15.7781 45.4729 16.1765C45.7103 16.5749 45.829 17.0639 45.829 17.6435C45.829 18.3116 45.654 18.9152 45.3038 19.4545C44.9577 19.9938 44.4506 20.4225 43.7825 20.7404C43.1185 21.0584 42.3115 21.2173 41.3617 21.2173C40.4763 21.2173 39.7096 21.0745 39.0616 20.7887C38.4177 20.503 37.9106 20.1045 37.5403 19.5934C37.1741 19.0823 36.9668 18.4886 36.9185 17.8125H38.464C38.5042 18.2794 38.6612 18.6657 38.9349 18.9716C39.2126 19.2734 39.5627 19.4988 39.9853 19.6477C40.4119 19.7926 40.8707 19.8651 41.3617 19.8651C41.9332 19.8651 42.4463 19.7725 42.9011 19.5874C43.3559 19.3982 43.7161 19.1366 43.9817 18.8026C44.2474 18.4645 44.3802 18.0701 44.3802 17.6193C44.3802 17.2088 44.2655 16.8748 44.0361 16.6172C43.8067 16.3596 43.5048 16.1503 43.1305 15.9893C42.7562 15.8284 42.3518 15.6875 41.9171 15.5668L40.3958 15.1321C39.4299 14.8544 38.6652 14.458 38.1018 13.9428C37.5383 13.4277 37.2566 12.7536 37.2566 11.9205C37.2566 11.2282 37.4437 10.6245 37.818 10.1094C38.1963 9.5902 38.7034 9.18774 39.3393 8.90199C39.9793 8.61222 40.6936 8.46733 41.4824 8.46733C42.2793 8.46733 42.9877 8.6102 43.6074 8.89595C44.2272 9.17767 44.7182 9.56404 45.0805 10.055C45.4467 10.546 45.6399 11.1035 45.66 11.7273H44.2111ZM52.4901 11.7273V12.9347H47.6847V11.7273H52.4901ZM49.0853 9.50568H50.51V18.3438C50.51 18.7462 50.5683 19.0481 50.685 19.2493C50.8058 19.4465 50.9587 19.5793 51.1438 19.6477C51.333 19.7121 51.5322 19.7443 51.7415 19.7443C51.8985 19.7443 52.0273 19.7363 52.1279 19.7202C52.2285 19.7 52.309 19.6839 52.3693 19.6719L52.6591 20.9517C52.5625 20.9879 52.4277 21.0241 52.2546 21.0604C52.0816 21.1006 51.8622 21.1207 51.5966 21.1207C51.1942 21.1207 50.7997 21.0342 50.4134 20.8612C50.031 20.6881 49.7131 20.4245 49.4595 20.0703C49.21 19.7161 49.0853 19.2694 49.0853 18.7301V9.50568ZM57.7219 21.2173C57.1343 21.2173 56.601 21.1067 56.1221 20.8853C55.6432 20.6599 55.2628 20.3359 54.9811 19.9134C54.6994 19.4867 54.5585 18.9716 54.5585 18.3679C54.5585 17.8366 54.6632 17.406 54.8725 17.076C55.0817 16.742 55.3614 16.4804 55.7116 16.2912C56.0617 16.102 56.4481 15.9612 56.8707 15.8686C57.2973 15.772 57.7259 15.6955 58.1565 15.6392C58.72 15.5668 59.1768 15.5124 59.5269 15.4762C59.8811 15.436 60.1387 15.3696 60.2997 15.277C60.4647 15.1844 60.5472 15.0234 60.5472 14.794V14.7457C60.5472 14.1501 60.3842 13.6873 60.0582 13.3572C59.7362 13.0272 59.2472 12.8622 58.5912 12.8622C57.911 12.8622 57.3778 13.0111 56.9914 13.3089C56.6051 13.6068 56.3334 13.9247 56.1764 14.2628L54.8242 13.7798C55.0656 13.2164 55.3876 12.7777 55.7901 12.4638C56.1966 12.1458 56.6393 11.9245 57.1182 11.7997C57.6012 11.6709 58.0761 11.6065 58.5429 11.6065C58.8407 11.6065 59.1828 11.6428 59.5692 11.7152C59.9596 11.7836 60.3359 11.9265 60.6981 12.1438C61.0643 12.3612 61.3682 12.6892 61.6097 13.1278C61.8512 13.5665 61.9719 14.1541 61.9719 14.8906V21H60.5472V19.7443H60.4747C60.3781 19.9455 60.2172 20.1609 59.9918 20.3903C59.7664 20.6197 59.4666 20.8149 59.0923 20.9759C58.718 21.1368 58.2612 21.2173 57.7219 21.2173ZM57.9392 19.9375C58.5027 19.9375 58.9776 19.8268 59.3639 19.6055C59.7543 19.3841 60.0481 19.0984 60.2453 18.7482C60.4466 18.3981 60.5472 18.0298 60.5472 17.6435V16.3395C60.4868 16.4119 60.354 16.4783 60.1487 16.5387C59.9475 16.5951 59.7141 16.6454 59.4485 16.6896C59.1869 16.7299 58.9313 16.7661 58.6818 16.7983C58.4363 16.8265 58.237 16.8506 58.0841 16.8707C57.7138 16.919 57.3677 16.9975 57.0458 17.1062C56.7278 17.2108 56.4702 17.3698 56.273 17.5831C56.0798 17.7924 55.9833 18.0781 55.9833 18.4403C55.9833 18.9354 56.1664 19.3097 56.5326 19.5632C56.9029 19.8127 57.3717 19.9375 57.9392 19.9375ZM65.5179 24.4773C65.2764 24.4773 65.0611 24.4571 64.8719 24.4169C64.6828 24.3807 64.552 24.3445 64.4795 24.3082L64.8417 23.0526C65.1879 23.1411 65.4937 23.1733 65.7594 23.1491C66.025 23.125 66.2604 23.0063 66.4657 22.793C66.675 22.5837 66.8661 22.2436 67.0392 21.7727L67.3048 21.0483L63.8758 11.7273H65.4213L67.9809 19.1165H68.0775L70.6372 11.7273H72.1827L68.2466 22.3523C68.0695 22.8312 67.8501 23.2276 67.5885 23.5415C67.3269 23.8595 67.0231 24.0949 66.677 24.2479C66.3349 24.4008 65.9485 24.4773 65.5179 24.4773ZM87.8712 8.63636H89.3684V16.8224C89.3684 17.6676 89.1692 18.4222 88.7707 19.0863C88.3763 19.7463 87.8189 20.2675 87.0985 20.6499C86.3781 21.0282 85.5329 21.2173 84.563 21.2173C83.5931 21.2173 82.7479 21.0282 82.0275 20.6499C81.3071 20.2675 80.7476 19.7463 80.3492 19.0863C79.9548 18.4222 79.7576 17.6676 79.7576 16.8224V8.63636H81.2547V16.7017C81.2547 17.3054 81.3876 17.8427 81.6532 18.3136C81.9188 18.7804 82.2971 19.1487 82.7881 19.4183C83.2832 19.6839 83.8748 19.8168 84.563 19.8168C85.2512 19.8168 85.8428 19.6839 86.3378 19.4183C86.8329 19.1487 87.2112 18.7804 87.4728 18.3136C87.7384 17.8427 87.8712 17.3054 87.8712 16.7017V8.63636ZM92.525 24.4773V11.7273H93.9014V13.2003H94.0704C94.1751 13.0393 94.32 12.834 94.5051 12.5845C94.6943 12.331 94.9639 12.1056 95.3141 11.9084C95.6682 11.7071 96.1472 11.6065 96.7508 11.6065C97.5316 11.6065 98.2198 11.8017 98.8155 12.1921C99.4111 12.5825 99.876 13.1359 100.21 13.8523C100.544 14.5687 100.711 15.4138 100.711 16.3878C100.711 17.3698 100.544 18.221 100.21 18.9414C99.876 19.6578 99.4131 20.2132 98.8215 20.6076C98.2299 20.998 97.5477 21.1932 96.775 21.1932C96.1793 21.1932 95.7024 21.0946 95.3442 20.8974C94.986 20.6961 94.7104 20.4687 94.5172 20.2152C94.324 19.9576 94.1751 19.7443 94.0704 19.5753H93.9497V24.4773H92.525ZM93.9256 16.3636C93.9256 17.0639 94.0282 17.6817 94.2334 18.217C94.4387 18.7482 94.7385 19.1648 95.1329 19.4666C95.5274 19.7644 96.0103 19.9134 96.5818 19.9134C97.1775 19.9134 97.6745 19.7564 98.0729 19.4425C98.4754 19.1245 98.7772 18.6979 98.9785 18.1626C99.1837 17.6233 99.2864 17.0237 99.2864 16.3636C99.2864 15.7116 99.1857 15.1241 98.9845 14.6009C98.7873 14.0736 98.4875 13.6571 98.085 13.3512C97.6866 13.0413 97.1855 12.8864 96.5818 12.8864C96.0023 12.8864 95.5153 13.0333 95.1209 13.3271C94.7265 13.6168 94.4286 14.0233 94.2274 14.5465C94.0262 15.0657 93.9256 15.6714 93.9256 16.3636ZM106.746 21.1932C105.973 21.1932 105.291 20.998 104.699 20.6076C104.108 20.2132 103.645 19.6578 103.311 18.9414C102.977 18.221 102.81 17.3698 102.81 16.3878C102.81 15.4138 102.977 14.5687 103.311 13.8523C103.645 13.1359 104.11 12.5825 104.705 12.1921C105.301 11.8017 105.989 11.6065 106.77 11.6065C107.374 11.6065 107.851 11.7071 108.201 11.9084C108.555 12.1056 108.824 12.331 109.01 12.5845C109.199 12.834 109.346 13.0393 109.45 13.2003H109.571V8.63636H110.996V21H109.619V19.5753H109.45C109.346 19.7443 109.197 19.9576 109.004 20.2152C108.81 20.4687 108.535 20.6961 108.177 20.8974C107.818 21.0946 107.341 21.1932 106.746 21.1932ZM106.939 19.9134C107.51 19.9134 107.993 19.7644 108.388 19.4666C108.782 19.1648 109.082 18.7482 109.287 18.217C109.493 17.6817 109.595 17.0639 109.595 16.3636C109.595 15.6714 109.495 15.0657 109.293 14.5465C109.092 14.0233 108.794 13.6168 108.4 13.3271C108.005 13.0333 107.519 12.8864 106.939 12.8864C106.335 12.8864 105.832 13.0413 105.43 13.3512C105.031 13.6571 104.731 14.0736 104.53 14.6009C104.333 15.1241 104.234 15.7116 104.234 16.3636C104.234 17.0237 104.335 17.6233 104.536 18.1626C104.742 18.6979 105.043 19.1245 105.442 19.4425C105.844 19.7564 106.343 19.9134 106.939 19.9134ZM116.892 21.2173C116.304 21.2173 115.771 21.1067 115.292 20.8853C114.813 20.6599 114.433 20.3359 114.151 19.9134C113.869 19.4867 113.728 18.9716 113.728 18.3679C113.728 17.8366 113.833 17.406 114.042 17.076C114.251 16.742 114.531 16.4804 114.881 16.2912C115.231 16.102 115.618 15.9612 116.04 15.8686C116.467 15.772 116.896 15.6955 117.326 15.6392C117.89 15.5668 118.347 15.5124 118.697 15.4762C119.051 15.436 119.308 15.3696 119.469 15.277C119.634 15.1844 119.717 15.0234 119.717 14.794V14.7457C119.717 14.1501 119.554 13.6873 119.228 13.3572C118.906 13.0272 118.417 12.8622 117.761 12.8622C117.081 12.8622 116.548 13.0111 116.161 13.3089C115.775 13.6068 115.503 13.9247 115.346 14.2628L113.994 13.7798C114.235 13.2164 114.557 12.7777 114.96 12.4638C115.366 12.1458 115.809 11.9245 116.288 11.7997C116.771 11.6709 117.246 11.6065 117.713 11.6065C118.01 11.6065 118.353 11.6428 118.739 11.7152C119.129 11.7836 119.506 11.9265 119.868 12.1438C120.234 12.3612 120.538 12.6892 120.779 13.1278C121.021 13.5665 121.142 14.1541 121.142 14.8906V21H119.717V19.7443H119.644C119.548 19.9455 119.387 20.1609 119.162 20.3903C118.936 20.6197 118.636 20.8149 118.262 20.9759C117.888 21.1368 117.431 21.2173 116.892 21.2173ZM117.109 19.9375C117.672 19.9375 118.147 19.8268 118.534 19.6055C118.924 19.3841 119.218 19.0984 119.415 18.7482C119.616 18.3981 119.717 18.0298 119.717 17.6435V16.3395C119.657 16.4119 119.524 16.4783 119.318 16.5387C119.117 16.5951 118.884 16.6454 118.618 16.6896C118.357 16.7299 118.101 16.7661 117.852 16.7983C117.606 16.8265 117.407 16.8506 117.254 16.8707C116.884 16.919 116.537 16.9975 116.216 17.1062C115.898 17.2108 115.64 17.3698 115.443 17.5831C115.25 17.7924 115.153 18.0781 115.153 18.4403C115.153 18.9354 115.336 19.3097 115.702 19.5632C116.073 19.8127 116.542 19.9375 117.109 19.9375ZM128.135 11.7273V12.9347H123.329V11.7273H128.135ZM124.73 9.50568H126.155V18.3438C126.155 18.7462 126.213 19.0481 126.33 19.2493C126.45 19.4465 126.603 19.5793 126.788 19.6477C126.978 19.7121 127.177 19.7443 127.386 19.7443C127.543 19.7443 127.672 19.7363 127.773 19.7202C127.873 19.7 127.954 19.6839 128.014 19.6719L128.304 20.9517C128.207 20.9879 128.072 21.0241 127.899 21.0604C127.726 21.1006 127.507 21.1207 127.241 21.1207C126.839 21.1207 126.444 21.0342 126.058 20.8612C125.676 20.6881 125.358 20.4245 125.104 20.0703C124.855 19.7161 124.73 19.2694 124.73 18.7301V9.50568ZM134.426 21.1932C133.533 21.1932 132.762 20.996 132.114 20.6016C131.47 20.2031 130.973 19.6477 130.623 18.9354C130.277 18.219 130.104 17.3859 130.104 16.4361C130.104 15.4863 130.277 14.6491 130.623 13.9247C130.973 13.1963 131.46 12.6288 132.084 12.2223C132.712 11.8118 133.444 11.6065 134.281 11.6065C134.764 11.6065 135.241 11.687 135.712 11.848C136.183 12.009 136.611 12.2706 136.998 12.6328C137.384 12.991 137.692 13.4659 137.921 14.0575C138.151 14.6491 138.266 15.3776 138.266 16.2429V16.8466H131.118V15.6151H136.817C136.817 15.0919 136.712 14.625 136.503 14.2145C136.297 13.804 136.004 13.48 135.621 13.2425C135.243 13.0051 134.796 12.8864 134.281 12.8864C133.714 12.8864 133.223 13.0272 132.808 13.3089C132.398 13.5866 132.082 13.9489 131.86 14.3956C131.639 14.8423 131.528 15.3213 131.528 15.8324V16.6534C131.528 17.3537 131.649 17.9473 131.891 18.4343C132.136 18.9173 132.476 19.2855 132.911 19.5391C133.345 19.7886 133.85 19.9134 134.426 19.9134C134.8 19.9134 135.138 19.861 135.44 19.7564C135.746 19.6477 136.01 19.4867 136.231 19.2734C136.452 19.0561 136.623 18.7865 136.744 18.4645L138.121 18.8509C137.976 19.3177 137.732 19.7282 137.39 20.0824C137.048 20.4325 136.625 20.7062 136.122 20.9034C135.619 21.0966 135.054 21.1932 134.426 21.1932ZM144.294 21.1932C143.521 21.1932 142.839 20.998 142.248 20.6076C141.656 20.2132 141.193 19.6578 140.859 18.9414C140.525 18.221 140.358 17.3698 140.358 16.3878C140.358 15.4138 140.525 14.5687 140.859 13.8523C141.193 13.1359 141.658 12.5825 142.254 12.1921C142.849 11.8017 143.538 11.6065 144.318 11.6065C144.922 11.6065 145.399 11.7071 145.749 11.9084C146.103 12.1056 146.373 12.331 146.558 12.5845C146.747 12.834 146.894 13.0393 146.999 13.2003H147.119V8.63636H148.544V21H147.168V19.5753H146.999C146.894 19.7443 146.745 19.9576 146.552 20.2152C146.359 20.4687 146.083 20.6961 145.725 20.8974C145.367 21.0946 144.89 21.1932 144.294 21.1932ZM144.487 19.9134C145.059 19.9134 145.542 19.7644 145.936 19.4666C146.331 19.1648 146.63 18.7482 146.836 18.217C147.041 17.6817 147.144 17.0639 147.144 16.3636C147.144 15.6714 147.043 15.0657 146.842 14.5465C146.641 14.0233 146.343 13.6168 145.948 13.3271C145.554 13.0333 145.067 12.8864 144.487 12.8864C143.884 12.8864 143.381 13.0413 142.978 13.3512C142.58 13.6571 142.28 14.0736 142.079 14.6009C141.881 15.1241 141.783 15.7116 141.783 16.3636C141.783 17.0237 141.883 17.6233 142.085 18.1626C142.29 18.6979 142.592 19.1245 142.99 19.4425C143.393 19.7564 143.892 19.9134 144.487 19.9134Z" fill="#1C2752"/>
</svg>
