<svg width="401" height="70" viewBox="0 0 401 70" fill="none" xmlns="http://www.w3.org/2000/svg">
<path d="M0.5 1.5H109.5V67.5H0.5V1.5Z" fill="#FFB342" stroke="#FFB342"/>
<path d="M28.2 44.216C26.264 44.216 24.768 43.808 23.712 42.992C22.656 42.16 22.128 41 22.128 39.512C22.128 38.344 22.488 37.376 23.208 36.608C23.928 35.824 24.88 35.352 26.064 35.192V35.552C24.992 35.328 24.136 34.84 23.496 34.088C22.856 33.32 22.536 32.416 22.536 31.376C22.536 29.952 23.04 28.848 24.048 28.064C25.056 27.264 26.44 26.864 28.2 26.864C29.976 26.864 31.368 27.264 32.376 28.064C33.384 28.848 33.888 29.952 33.888 31.376C33.888 32.416 33.584 33.32 32.976 34.088C32.384 34.856 31.552 35.336 30.48 35.528V35.192C31.648 35.352 32.576 35.824 33.264 36.608C33.952 37.376 34.296 38.344 34.296 39.512C34.296 41 33.768 42.16 32.712 42.992C31.656 43.808 30.152 44.216 28.2 44.216ZM28.2 42.584C29.608 42.584 30.656 42.32 31.344 41.792C32.048 41.264 32.4 40.464 32.4 39.392C32.4 38.336 32.048 37.552 31.344 37.04C30.656 36.512 29.608 36.248 28.2 36.248C26.792 36.248 25.736 36.512 25.032 37.04C24.344 37.552 24 38.336 24 39.392C24 40.464 24.352 41.264 25.056 41.792C25.76 42.32 26.808 42.584 28.2 42.584ZM28.2 34.616C29.416 34.616 30.344 34.344 30.984 33.8C31.64 33.256 31.968 32.504 31.968 31.544C31.968 30.584 31.64 29.84 30.984 29.312C30.344 28.768 29.416 28.496 28.2 28.496C26.984 28.496 26.048 28.768 25.392 29.312C24.752 29.84 24.432 30.584 24.432 31.544C24.432 32.504 24.752 33.256 25.392 33.8C26.048 34.344 26.984 34.616 28.2 34.616ZM45.0146 44V40.328H36.9506V38.888L45.3266 27.08H46.9586V38.72H49.5506V40.328H46.9586V44H45.0146ZM45.0146 38.72V29.432H45.5426L38.5826 39.224V38.72H45.0146ZM58.0132 44.216C57.2772 44.216 56.5572 44.136 55.8532 43.976C55.1492 43.816 54.4852 43.584 53.8612 43.28C53.2532 42.976 52.7172 42.608 52.2532 42.176L52.9972 40.64C53.7812 41.264 54.5812 41.728 55.3972 42.032C56.2132 42.32 57.0852 42.464 58.0132 42.464C59.2292 42.464 60.1812 42.136 60.8692 41.48C61.5572 40.824 61.9012 39.96 61.9012 38.888C61.9012 37.784 61.5732 36.88 60.9172 36.176C60.2612 35.472 59.3492 35.12 58.1812 35.12C57.3492 35.12 56.6052 35.288 55.9492 35.624C55.2932 35.944 54.7252 36.448 54.2452 37.136H52.8052V27.08H62.8372V28.76H54.7252V35.504H54.1972C54.6292 34.832 55.2212 34.32 55.9732 33.968C56.7412 33.6 57.6052 33.416 58.5652 33.416C59.6532 33.416 60.5892 33.64 61.3732 34.088C62.1732 34.536 62.7892 35.16 63.2213 35.96C63.6533 36.76 63.8693 37.696 63.8693 38.768C63.8693 39.84 63.6293 40.792 63.1492 41.624C62.6852 42.44 62.0132 43.08 61.1332 43.544C60.2692 43.992 59.2292 44.216 58.0132 44.216ZM71.6839 43.088V37.856H66.5239V36.368H71.6839V31.256H73.2199V36.368H78.3799V37.856H73.2199V43.088H71.6839Z" fill="#1C2752"/>
<rect x="400" y="1.35938" width="1" height="67" fill="white"/>
<path d="M132.2 44V26.375H134.275V34.175H144.9V26.375H146.95V44H144.9V35.95H134.275V44H132.2ZM156.251 44.225C155.134 44.225 154.159 43.9667 153.326 43.45C152.492 42.9167 151.842 42.1667 151.376 41.2C150.926 40.2333 150.701 39.075 150.701 37.725C150.701 36.3583 150.926 35.1917 151.376 34.225C151.842 33.2583 152.492 32.5167 153.326 32C154.159 31.4833 155.134 31.225 156.251 31.225C157.384 31.225 158.359 31.5167 159.176 32.1C160.009 32.6667 160.559 33.4417 160.826 34.425H160.526L160.801 31.45H162.751C162.701 31.9333 162.651 32.425 162.601 32.925C162.567 33.4083 162.551 33.8833 162.551 34.35V44H160.526V41.05H160.801C160.534 42.0333 159.984 42.8083 159.151 43.375C158.317 43.9417 157.351 44.225 156.251 44.225ZM156.651 42.575C157.851 42.575 158.801 42.1667 159.501 41.35C160.201 40.5167 160.551 39.3083 160.551 37.725C160.551 36.125 160.201 34.9167 159.501 34.1C158.801 33.2667 157.851 32.85 156.651 32.85C155.467 32.85 154.517 33.2667 153.801 34.1C153.101 34.9167 152.751 36.125 152.751 37.725C152.751 39.3083 153.101 40.5167 153.801 41.35C154.517 42.1667 155.467 42.575 156.651 42.575ZM166.826 49.4V34.35C166.826 33.8833 166.801 33.4083 166.751 32.925C166.718 32.425 166.676 31.9333 166.626 31.45H168.576L168.851 34.425H168.551C168.818 33.4417 169.359 32.6667 170.176 32.1C170.993 31.5167 171.968 31.225 173.101 31.225C174.234 31.225 175.209 31.4833 176.026 32C176.859 32.5167 177.509 33.2583 177.976 34.225C178.443 35.1917 178.676 36.3583 178.676 37.725C178.676 39.075 178.443 40.2333 177.976 41.2C177.526 42.1667 176.884 42.9167 176.051 43.45C175.218 43.9667 174.234 44.225 173.101 44.225C171.984 44.225 171.018 43.9417 170.201 43.375C169.384 42.8083 168.843 42.0333 168.576 41.05H168.851V49.4H166.826ZM172.701 42.575C173.901 42.575 174.851 42.1667 175.551 41.35C176.268 40.5167 176.626 39.3083 176.626 37.725C176.626 36.125 176.268 34.9167 175.551 34.1C174.851 33.2667 173.901 32.85 172.701 32.85C171.518 32.85 170.568 33.2667 169.851 34.1C169.151 34.9167 168.801 36.125 168.801 37.725C168.801 39.3083 169.151 40.5167 169.851 41.35C170.568 42.1667 171.518 42.575 172.701 42.575ZM182.176 49.4V34.35C182.176 33.8833 182.151 33.4083 182.101 32.925C182.068 32.425 182.026 31.9333 181.976 31.45H183.926L184.201 34.425H183.901C184.168 33.4417 184.709 32.6667 185.526 32.1C186.343 31.5167 187.318 31.225 188.451 31.225C189.584 31.225 190.559 31.4833 191.376 32C192.209 32.5167 192.859 33.2583 193.326 34.225C193.793 35.1917 194.026 36.3583 194.026 37.725C194.026 39.075 193.793 40.2333 193.326 41.2C192.876 42.1667 192.234 42.9167 191.401 43.45C190.568 43.9667 189.584 44.225 188.451 44.225C187.334 44.225 186.368 43.9417 185.551 43.375C184.734 42.8083 184.193 42.0333 183.926 41.05H184.201V49.4H182.176ZM188.051 42.575C189.251 42.575 190.201 42.1667 190.901 41.35C191.618 40.5167 191.976 39.3083 191.976 37.725C191.976 36.125 191.618 34.9167 190.901 34.1C190.201 33.2667 189.251 32.85 188.051 32.85C186.868 32.85 185.918 33.2667 185.201 34.1C184.501 34.9167 184.151 36.125 184.151 37.725C184.151 39.3083 184.501 40.5167 185.201 41.35C185.918 42.1667 186.868 42.575 188.051 42.575ZM196.855 49.675L196.38 48C197.164 47.8167 197.814 47.6 198.33 47.35C198.864 47.1167 199.305 46.8 199.655 46.4C200.005 46 200.305 45.5 200.555 44.9L201.205 43.425L201.155 44.275L195.68 31.45H197.88L202.405 42.475H201.755L206.23 31.45H208.355L202.555 45.05C202.222 45.85 201.855 46.5167 201.455 47.05C201.055 47.6 200.622 48.0417 200.155 48.375C199.705 48.725 199.205 49 198.655 49.2C198.105 49.4 197.505 49.5583 196.855 49.675ZM225.775 44.225C224.009 44.225 222.509 43.8583 221.275 43.125C220.042 42.3917 219.092 41.35 218.425 40C217.775 38.65 217.45 37.0417 217.45 35.175C217.45 33.3083 217.775 31.7083 218.425 30.375C219.092 29.025 220.042 27.9833 221.275 27.25C222.509 26.5167 224.009 26.15 225.775 26.15C227.025 26.15 228.142 26.3417 229.125 26.725C230.109 27.1083 230.967 27.6667 231.7 28.4L230.925 30.05C230.125 29.35 229.334 28.8417 228.55 28.525C227.767 28.1917 226.85 28.025 225.8 28.025C223.784 28.025 222.25 28.65 221.2 29.9C220.15 31.15 219.625 32.9083 219.625 35.175C219.625 37.4417 220.15 39.2083 221.2 40.475C222.25 41.725 223.784 42.35 225.8 42.35C226.85 42.35 227.767 42.1917 228.55 41.875C229.334 41.5417 230.125 41.0167 230.925 40.3L231.7 41.975C230.967 42.6917 230.109 43.25 229.125 43.65C228.142 44.0333 227.025 44.225 225.775 44.225ZM239.482 44.225C237.998 44.225 236.873 43.8167 236.107 43C235.357 42.1833 234.982 40.9333 234.982 39.25V31.45H237.007V39.2C237.007 40.35 237.24 41.2 237.707 41.75C238.173 42.2833 238.898 42.55 239.882 42.55C240.982 42.55 241.865 42.1917 242.532 41.475C243.198 40.7583 243.532 39.8 243.532 38.6V31.45H245.557V44H243.582V41.175H243.907C243.557 42.1417 242.99 42.8917 242.207 43.425C241.44 43.9583 240.532 44.225 239.482 44.225ZM254.02 44.225C253.02 44.225 252.087 44.0917 251.22 43.825C250.354 43.5417 249.637 43.15 249.07 42.65L249.77 41.225C250.387 41.7083 251.054 42.0667 251.77 42.3C252.504 42.5333 253.262 42.65 254.045 42.65C255.045 42.65 255.795 42.475 256.295 42.125C256.812 41.7583 257.07 41.2583 257.07 40.625C257.07 40.1417 256.904 39.7583 256.57 39.475C256.254 39.175 255.729 38.9417 254.995 38.775L252.67 38.3C251.604 38.0667 250.804 37.675 250.27 37.125C249.737 36.5583 249.47 35.8417 249.47 34.975C249.47 34.2417 249.662 33.6 250.045 33.05C250.429 32.4833 250.987 32.0417 251.72 31.725C252.454 31.3917 253.312 31.225 254.295 31.225C255.212 31.225 256.054 31.3667 256.82 31.65C257.604 31.9167 258.254 32.3083 258.77 32.825L258.045 34.225C257.545 33.7417 256.97 33.3833 256.32 33.15C255.687 32.9 255.029 32.775 254.345 32.775C253.362 32.775 252.62 32.975 252.12 33.375C251.637 33.7583 251.395 34.2667 251.395 34.9C251.395 35.3833 251.545 35.7833 251.845 36.1C252.162 36.4 252.645 36.625 253.295 36.775L255.62 37.25C256.754 37.5 257.595 37.8917 258.145 38.425C258.712 38.9417 258.995 39.6417 258.995 40.525C258.995 41.275 258.787 41.9333 258.37 42.5C257.954 43.05 257.37 43.475 256.62 43.775C255.887 44.075 255.02 44.225 254.02 44.225ZM266.936 44.225C265.702 44.225 264.761 43.875 264.111 43.175C263.461 42.4583 263.136 41.3833 263.136 39.95V33.025H260.686V31.45H263.136V28.025L265.161 27.45V31.45H268.761V33.025H265.161V39.725C265.161 40.725 265.327 41.4417 265.661 41.875C266.011 42.2917 266.527 42.5 267.211 42.5C267.527 42.5 267.811 42.475 268.061 42.425C268.311 42.3583 268.536 42.2833 268.736 42.2V43.9C268.502 44 268.219 44.075 267.886 44.125C267.569 44.1917 267.252 44.225 266.936 44.225ZM276.614 44.225C275.414 44.225 274.364 43.9667 273.464 43.45C272.58 42.9167 271.897 42.1667 271.414 41.2C270.93 40.2167 270.689 39.0583 270.689 37.725C270.689 36.375 270.93 35.2167 271.414 34.25C271.897 33.2833 272.58 32.5417 273.464 32.025C274.364 31.4917 275.414 31.225 276.614 31.225C277.83 31.225 278.88 31.4917 279.764 32.025C280.664 32.5417 281.355 33.2833 281.839 34.25C282.339 35.2167 282.589 36.375 282.589 37.725C282.589 39.0583 282.339 40.2167 281.839 41.2C281.355 42.1667 280.664 42.9167 279.764 43.45C278.88 43.9667 277.83 44.225 276.614 44.225ZM276.614 42.575C277.814 42.575 278.764 42.1667 279.464 41.35C280.164 40.5167 280.514 39.3083 280.514 37.725C280.514 36.125 280.155 34.9167 279.439 34.1C278.739 33.2667 277.797 32.85 276.614 32.85C275.43 32.85 274.489 33.2667 273.789 34.1C273.089 34.9167 272.739 36.125 272.739 37.725C272.739 39.3083 273.089 40.5167 273.789 41.35C274.489 42.1667 275.43 42.575 276.614 42.575ZM286.106 44V34.35C286.106 33.8833 286.081 33.4083 286.031 32.925C285.998 32.425 285.956 31.9333 285.906 31.45H287.856L288.106 34.2H287.806C288.139 33.25 288.664 32.5167 289.381 32C290.114 31.4833 290.998 31.225 292.031 31.225C293.081 31.225 293.931 31.475 294.581 31.975C295.248 32.475 295.698 33.25 295.931 34.3H295.556C295.873 33.35 296.431 32.6 297.231 32.05C298.031 31.5 298.964 31.225 300.031 31.225C301.414 31.225 302.456 31.625 303.156 32.425C303.856 33.2083 304.206 34.45 304.206 36.15V44H302.181V36.275C302.181 35.0917 301.973 34.2333 301.556 33.7C301.139 33.15 300.473 32.875 299.556 32.875C298.506 32.875 297.673 33.2417 297.056 33.975C296.456 34.6917 296.156 35.6583 296.156 36.875V44H294.131V36.275C294.131 35.0917 293.923 34.2333 293.506 33.7C293.089 33.15 292.423 32.875 291.506 32.875C290.456 32.875 289.631 33.2417 289.031 33.975C288.431 34.6917 288.131 35.6583 288.131 36.875V44H286.106ZM313.989 44.225C312.022 44.225 310.472 43.6583 309.339 42.525C308.206 41.375 307.639 39.7833 307.639 37.75C307.639 36.4333 307.889 35.2917 308.389 34.325C308.889 33.3417 309.589 32.5833 310.489 32.05C311.389 31.5 312.422 31.225 313.589 31.225C314.739 31.225 315.706 31.4667 316.489 31.95C317.272 32.4333 317.872 33.125 318.289 34.025C318.706 34.9083 318.914 35.9583 318.914 37.175V37.925H309.189V36.65H317.589L317.164 36.975C317.164 35.6417 316.864 34.6 316.264 33.85C315.664 33.1 314.772 32.725 313.589 32.725C312.339 32.725 311.364 33.1667 310.664 34.05C309.964 34.9167 309.614 36.0917 309.614 37.575V37.8C309.614 39.3667 309.997 40.5583 310.764 41.375C311.547 42.175 312.639 42.575 314.039 42.575C314.789 42.575 315.489 42.4667 316.139 42.25C316.806 42.0167 317.439 41.6417 318.039 41.125L318.739 42.55C318.189 43.0833 317.489 43.5 316.639 43.8C315.806 44.0833 314.922 44.225 313.989 44.225ZM322.323 44V34.475C322.323 33.975 322.306 33.4667 322.273 32.95C322.256 32.4333 322.223 31.9333 322.173 31.45H324.123L324.373 34.5L324.023 34.525C324.189 33.775 324.481 33.1583 324.898 32.675C325.314 32.1917 325.806 31.8333 326.373 31.6C326.939 31.35 327.531 31.225 328.148 31.225C328.398 31.225 328.614 31.2333 328.798 31.25C328.998 31.2667 329.181 31.3083 329.348 31.375L329.323 33.175C329.073 33.0917 328.839 33.0417 328.623 33.025C328.423 32.9917 328.189 32.975 327.923 32.975C327.189 32.975 326.548 33.15 325.998 33.5C325.464 33.85 325.056 34.3 324.773 34.85C324.506 35.4 324.373 35.9833 324.373 36.6V44H322.323ZM335.868 44.225C334.868 44.225 333.934 44.0917 333.068 43.825C332.201 43.5417 331.484 43.15 330.918 42.65L331.618 41.225C332.234 41.7083 332.901 42.0667 333.618 42.3C334.351 42.5333 335.109 42.65 335.893 42.65C336.893 42.65 337.643 42.475 338.143 42.125C338.659 41.7583 338.918 41.2583 338.918 40.625C338.918 40.1417 338.751 39.7583 338.418 39.475C338.101 39.175 337.576 38.9417 336.843 38.775L334.518 38.3C333.451 38.0667 332.651 37.675 332.118 37.125C331.584 36.5583 331.318 35.8417 331.318 34.975C331.318 34.2417 331.509 33.6 331.893 33.05C332.276 32.4833 332.834 32.0417 333.568 31.725C334.301 31.3917 335.159 31.225 336.143 31.225C337.059 31.225 337.901 31.3667 338.668 31.65C339.451 31.9167 340.101 32.3083 340.618 32.825L339.893 34.225C339.393 33.7417 338.818 33.3833 338.168 33.15C337.534 32.9 336.876 32.775 336.193 32.775C335.209 32.775 334.468 32.975 333.968 33.375C333.484 33.7583 333.243 34.2667 333.243 34.9C333.243 35.3833 333.393 35.7833 333.693 36.1C334.009 36.4 334.493 36.625 335.143 36.775L337.468 37.25C338.601 37.5 339.443 37.8917 339.993 38.425C340.559 38.9417 340.843 39.6417 340.843 40.525C340.843 41.275 340.634 41.9333 340.218 42.5C339.801 43.05 339.218 43.475 338.468 43.775C337.734 44.075 336.868 44.225 335.868 44.225Z" fill="white"/>
<rect x="110" y="0.359375" width="290" height="1" fill="white"/>
<rect x="110" y="68.3594" width="290" height="1" fill="white"/>
</svg>
