<svg width="401" height="70" viewBox="0 0 401 70" fill="none" xmlns="http://www.w3.org/2000/svg">
<rect x="110" y="0.359375" width="290" height="1" fill="white"/>
<rect x="110" y="68.3594" width="290" height="1" fill="white"/>
<rect x="400" y="1.35938" width="1" height="67" fill="white"/>
<path d="M0.5 1.5H109.5V67.5H0.5V1.5Z" fill="#FFB342" stroke="#FFB342"/>
<path d="M23.15 44V42.45L29.4 35.925C30.2167 35.075 30.825 34.2667 31.225 33.5C31.6417 32.7167 31.85 31.9083 31.85 31.075C31.85 30.0583 31.5333 29.2917 30.9 28.775C30.2667 28.2417 29.35 27.975 28.15 27.975C27.2167 27.975 26.35 28.1417 25.55 28.475C24.7667 28.7917 24.0083 29.3 23.275 30L22.525 28.375C23.1917 27.7083 24.0417 27.175 25.075 26.775C26.1083 26.3583 27.2 26.15 28.35 26.15C30.1333 26.15 31.5083 26.5667 32.475 27.4C33.4417 28.2167 33.925 29.3833 33.925 30.9C33.925 32.0167 33.65 33.0833 33.1 34.1C32.5667 35.1 31.7833 36.1333 30.75 37.2L25.225 42.8V42.225H34.675V44H23.15ZM44.4252 44.225C42.2919 44.225 40.6419 43.475 39.4752 41.975C38.3252 40.4583 37.7502 38.3417 37.7502 35.625C37.7502 33.5917 38.0419 31.875 38.6252 30.475C39.2086 29.0583 40.0419 27.9833 41.1252 27.25C42.2086 26.5167 43.5169 26.15 45.0502 26.15C45.9669 26.15 46.8919 26.3417 47.8252 26.725C48.7586 27.0917 49.5252 27.6083 50.1252 28.275L49.3752 29.875C48.7419 29.225 48.0502 28.75 47.3002 28.45C46.5502 28.1333 45.7919 27.975 45.0252 27.975C43.3252 27.975 42.0169 28.5833 41.1002 29.8C40.2002 31 39.7502 32.8083 39.7502 35.225V37.55H39.5252C39.6419 36.6 39.9252 35.7833 40.3752 35.1C40.8419 34.4 41.4502 33.8667 42.2002 33.5C42.9502 33.1333 43.7836 32.95 44.7002 32.95C45.7669 32.95 46.7086 33.1833 47.5252 33.65C48.3419 34.1167 48.9836 34.775 49.4502 35.625C49.9169 36.4583 50.1502 37.4167 50.1502 38.5C50.1502 39.6 49.9086 40.5833 49.4252 41.45C48.9419 42.3167 48.2669 43 47.4002 43.5C46.5336 43.9833 45.5419 44.225 44.4252 44.225ZM44.2752 42.475C45.0419 42.475 45.7169 42.3167 46.3002 42C46.9002 41.6667 47.3586 41.2083 47.6752 40.625C48.0086 40.025 48.1752 39.3417 48.1752 38.575C48.1752 37.8083 48.0086 37.1333 47.6752 36.55C47.3586 35.9667 46.9002 35.5083 46.3002 35.175C45.7169 34.8417 45.0419 34.675 44.2752 34.675C43.5086 34.675 42.8336 34.8417 42.2502 35.175C41.6669 35.5083 41.2086 35.9667 40.8752 36.55C40.5586 37.1333 40.4002 37.8083 40.4002 38.575C40.4002 39.3417 40.5586 40.025 40.8752 40.625C41.2086 41.2083 41.6669 41.6667 42.2502 42C42.8336 42.3167 43.5086 42.475 44.2752 42.475ZM59.5255 44.225C58.7588 44.225 58.0088 44.1417 57.2755 43.975C56.5421 43.8083 55.8505 43.5667 55.2005 43.25C54.5671 42.9333 54.0088 42.55 53.5255 42.1L54.3005 40.5C55.1171 41.15 55.9505 41.6333 56.8005 41.95C57.6505 42.25 58.5588 42.4 59.5255 42.4C60.7921 42.4 61.7838 42.0583 62.5005 41.375C63.2171 40.6917 63.5755 39.7917 63.5755 38.675C63.5755 37.525 63.2338 36.5833 62.5505 35.85C61.8671 35.1167 60.9171 34.75 59.7005 34.75C58.8338 34.75 58.0588 34.925 57.3755 35.275C56.6921 35.6083 56.1005 36.1333 55.6005 36.85H54.1005V26.375H64.5505V28.125H56.1005V35.15H55.5505C56.0005 34.45 56.6171 33.9167 57.4005 33.55C58.2005 33.1667 59.1005 32.975 60.1005 32.975C61.2338 32.975 62.2088 33.2083 63.0255 33.675C63.8588 34.1417 64.5005 34.7917 64.9505 35.625C65.4005 36.4583 65.6255 37.4333 65.6255 38.55C65.6255 39.6667 65.3755 40.6583 64.8755 41.525C64.3921 42.375 63.6921 43.0417 62.7755 43.525C61.8755 43.9917 60.7921 44.225 59.5255 44.225Z" fill="#1C2752"/>
<path d="M132.2 44V26.375H139.25C141.117 26.375 142.558 26.775 143.575 27.575C144.592 28.375 145.1 29.5083 145.1 30.975C145.1 32.075 144.767 32.9917 144.1 33.725C143.45 34.4583 142.542 34.9417 141.375 35.175V34.825C142.675 34.975 143.692 35.425 144.425 36.175C145.175 36.9083 145.55 37.9 145.55 39.15C145.55 40.7167 145.025 41.9167 143.975 42.75C142.942 43.5833 141.475 44 139.575 44H132.2ZM134.225 42.325H139.375C140.642 42.325 141.642 42.0833 142.375 41.6C143.125 41.1 143.5 40.275 143.5 39.125C143.5 37.9583 143.125 37.1333 142.375 36.65C141.642 36.15 140.642 35.9 139.375 35.9H134.225V42.325ZM134.225 34.25H138.95C140.317 34.25 141.342 33.9833 142.025 33.45C142.708 32.9167 143.05 32.15 143.05 31.15C143.05 30.1167 142.708 29.3417 142.025 28.825C141.342 28.2917 140.317 28.025 138.95 28.025H134.225V34.25ZM153.752 44.225C152.269 44.225 151.144 43.8167 150.377 43C149.627 42.1833 149.252 40.9333 149.252 39.25V31.45H151.277V39.2C151.277 40.35 151.511 41.2 151.977 41.75C152.444 42.2833 153.169 42.55 154.152 42.55C155.252 42.55 156.136 42.1917 156.802 41.475C157.469 40.7583 157.802 39.8 157.802 38.6V31.45H159.827V44H157.852V41.175H158.177C157.827 42.1417 157.261 42.8917 156.477 43.425C155.711 43.9583 154.802 44.225 153.752 44.225ZM168.291 44.225C167.291 44.225 166.358 44.0917 165.491 43.825C164.624 43.5417 163.908 43.15 163.341 42.65L164.041 41.225C164.658 41.7083 165.324 42.0667 166.041 42.3C166.774 42.5333 167.533 42.65 168.316 42.65C169.316 42.65 170.066 42.475 170.566 42.125C171.083 41.7583 171.341 41.2583 171.341 40.625C171.341 40.1417 171.174 39.7583 170.841 39.475C170.524 39.175 169.999 38.9417 169.266 38.775L166.941 38.3C165.874 38.0667 165.074 37.675 164.541 37.125C164.008 36.5583 163.741 35.8417 163.741 34.975C163.741 34.2417 163.933 33.6 164.316 33.05C164.699 32.4833 165.258 32.0417 165.991 31.725C166.724 31.3917 167.583 31.225 168.566 31.225C169.483 31.225 170.324 31.3667 171.091 31.65C171.874 31.9167 172.524 32.3083 173.041 32.825L172.316 34.225C171.816 33.7417 171.241 33.3833 170.591 33.15C169.958 32.9 169.299 32.775 168.616 32.775C167.633 32.775 166.891 32.975 166.391 33.375C165.908 33.7583 165.666 34.2667 165.666 34.9C165.666 35.3833 165.816 35.7833 166.116 36.1C166.433 36.4 166.916 36.625 167.566 36.775L169.891 37.25C171.024 37.5 171.866 37.8917 172.416 38.425C172.983 38.9417 173.266 39.6417 173.266 40.525C173.266 41.275 173.058 41.9333 172.641 42.5C172.224 43.05 171.641 43.475 170.891 43.775C170.158 44.075 169.291 44.225 168.291 44.225ZM176.878 44V31.45H178.903V44H176.878ZM176.628 28.6V26.325H179.128V28.6H176.628ZM183.195 44V34.35C183.195 33.8833 183.17 33.4083 183.12 32.925C183.087 32.425 183.045 31.9333 182.995 31.45H184.945L185.195 34.2H184.895C185.262 33.2333 185.845 32.5 186.645 32C187.462 31.4833 188.404 31.225 189.47 31.225C190.954 31.225 192.07 31.625 192.82 32.425C193.587 33.2083 193.97 34.45 193.97 36.15V44H191.945V36.275C191.945 35.0917 191.704 34.2333 191.22 33.7C190.754 33.15 190.02 32.875 189.02 32.875C187.854 32.875 186.929 33.2333 186.245 33.95C185.562 34.6667 185.22 35.625 185.22 36.825V44H183.195ZM203.779 44.225C201.812 44.225 200.262 43.6583 199.129 42.525C197.995 41.375 197.429 39.7833 197.429 37.75C197.429 36.4333 197.679 35.2917 198.179 34.325C198.679 33.3417 199.379 32.5833 200.279 32.05C201.179 31.5 202.212 31.225 203.379 31.225C204.529 31.225 205.495 31.4667 206.279 31.95C207.062 32.4333 207.662 33.125 208.079 34.025C208.495 34.9083 208.704 35.9583 208.704 37.175V37.925H198.979V36.65H207.379L206.954 36.975C206.954 35.6417 206.654 34.6 206.054 33.85C205.454 33.1 204.562 32.725 203.379 32.725C202.129 32.725 201.154 33.1667 200.454 34.05C199.754 34.9167 199.404 36.0917 199.404 37.575V37.8C199.404 39.3667 199.787 40.5583 200.554 41.375C201.337 42.175 202.429 42.575 203.829 42.575C204.579 42.575 205.279 42.4667 205.929 42.25C206.595 42.0167 207.229 41.6417 207.829 41.125L208.529 42.55C207.979 43.0833 207.279 43.5 206.429 43.8C205.595 44.0833 204.712 44.225 203.779 44.225ZM216.337 44.225C215.337 44.225 214.404 44.0917 213.537 43.825C212.671 43.5417 211.954 43.15 211.387 42.65L212.087 41.225C212.704 41.7083 213.371 42.0667 214.087 42.3C214.821 42.5333 215.579 42.65 216.362 42.65C217.362 42.65 218.112 42.475 218.612 42.125C219.129 41.7583 219.387 41.2583 219.387 40.625C219.387 40.1417 219.221 39.7583 218.887 39.475C218.571 39.175 218.046 38.9417 217.312 38.775L214.987 38.3C213.921 38.0667 213.121 37.675 212.587 37.125C212.054 36.5583 211.787 35.8417 211.787 34.975C211.787 34.2417 211.979 33.6 212.362 33.05C212.746 32.4833 213.304 32.0417 214.037 31.725C214.771 31.3917 215.629 31.225 216.612 31.225C217.529 31.225 218.371 31.3667 219.137 31.65C219.921 31.9167 220.571 32.3083 221.087 32.825L220.362 34.225C219.862 33.7417 219.287 33.3833 218.637 33.15C218.004 32.9 217.346 32.775 216.662 32.775C215.679 32.775 214.937 32.975 214.437 33.375C213.954 33.7583 213.712 34.2667 213.712 34.9C213.712 35.3833 213.862 35.7833 214.162 36.1C214.479 36.4 214.962 36.625 215.612 36.775L217.937 37.25C219.071 37.5 219.912 37.8917 220.462 38.425C221.029 38.9417 221.312 39.6417 221.312 40.525C221.312 41.275 221.104 41.9333 220.687 42.5C220.271 43.05 219.687 43.475 218.937 43.775C218.204 44.075 217.337 44.225 216.337 44.225ZM229.1 44.225C228.1 44.225 227.166 44.0917 226.3 43.825C225.433 43.5417 224.716 43.15 224.15 42.65L224.85 41.225C225.466 41.7083 226.133 42.0667 226.85 42.3C227.583 42.5333 228.341 42.65 229.125 42.65C230.125 42.65 230.875 42.475 231.375 42.125C231.891 41.7583 232.15 41.2583 232.15 40.625C232.15 40.1417 231.983 39.7583 231.65 39.475C231.333 39.175 230.808 38.9417 230.075 38.775L227.75 38.3C226.683 38.0667 225.883 37.675 225.35 37.125C224.816 36.5583 224.55 35.8417 224.55 34.975C224.55 34.2417 224.741 33.6 225.125 33.05C225.508 32.4833 226.066 32.0417 226.8 31.725C227.533 31.3917 228.391 31.225 229.375 31.225C230.291 31.225 231.133 31.3667 231.9 31.65C232.683 31.9167 233.333 32.3083 233.85 32.825L233.125 34.225C232.625 33.7417 232.05 33.3833 231.4 33.15C230.766 32.9 230.108 32.775 229.425 32.775C228.441 32.775 227.7 32.975 227.2 33.375C226.716 33.7583 226.475 34.2667 226.475 34.9C226.475 35.3833 226.625 35.7833 226.925 36.1C227.241 36.4 227.725 36.625 228.375 36.775L230.7 37.25C231.833 37.5 232.675 37.8917 233.225 38.425C233.791 38.9417 234.075 39.6417 234.075 40.525C234.075 41.275 233.866 41.9333 233.45 42.5C233.033 43.05 232.45 43.475 231.7 43.775C230.966 44.075 230.1 44.225 229.1 44.225ZM244.791 44V26.375H251.966C253.816 26.375 255.241 26.825 256.241 27.725C257.241 28.6083 257.741 29.8417 257.741 31.425C257.741 32.975 257.241 34.2083 256.241 35.125C255.241 36.025 253.816 36.475 251.966 36.475H246.866V44H244.791ZM246.866 34.75H251.766C253.049 34.75 254.016 34.4583 254.666 33.875C255.332 33.2917 255.666 32.475 255.666 31.425C255.666 30.3583 255.332 29.5333 254.666 28.95C254.016 28.3667 253.049 28.075 251.766 28.075H246.866V34.75ZM265.374 44.225C264.258 44.225 263.283 43.9667 262.449 43.45C261.616 42.9167 260.966 42.1667 260.499 41.2C260.049 40.2333 259.824 39.075 259.824 37.725C259.824 36.3583 260.049 35.1917 260.499 34.225C260.966 33.2583 261.616 32.5167 262.449 32C263.283 31.4833 264.258 31.225 265.374 31.225C266.508 31.225 267.483 31.5167 268.299 32.1C269.133 32.6667 269.683 33.4417 269.949 34.425H269.649L269.924 31.45H271.874C271.824 31.9333 271.774 32.425 271.724 32.925C271.691 33.4083 271.674 33.8833 271.674 34.35V44H269.649V41.05H269.924C269.658 42.0333 269.108 42.8083 268.274 43.375C267.441 43.9417 266.474 44.225 265.374 44.225ZM265.774 42.575C266.974 42.575 267.924 42.1667 268.624 41.35C269.324 40.5167 269.674 39.3083 269.674 37.725C269.674 36.125 269.324 34.9167 268.624 34.1C267.924 33.2667 266.974 32.85 265.774 32.85C264.591 32.85 263.641 33.2667 262.924 34.1C262.224 34.9167 261.874 36.125 261.874 37.725C261.874 39.3083 262.224 40.5167 262.924 41.35C263.641 42.1667 264.591 42.575 265.774 42.575ZM275.9 44V34.475C275.9 33.975 275.883 33.4667 275.85 32.95C275.833 32.4333 275.8 31.9333 275.75 31.45H277.7L277.95 34.5L277.6 34.525C277.766 33.775 278.058 33.1583 278.475 32.675C278.891 32.1917 279.383 31.8333 279.95 31.6C280.516 31.35 281.108 31.225 281.725 31.225C281.975 31.225 282.191 31.2333 282.375 31.25C282.575 31.2667 282.758 31.3083 282.925 31.375L282.9 33.175C282.65 33.0917 282.416 33.0417 282.2 33.025C282 32.9917 281.766 32.975 281.5 32.975C280.766 32.975 280.125 33.15 279.575 33.5C279.041 33.85 278.633 34.3 278.35 34.85C278.083 35.4 277.95 35.9833 277.95 36.6V44H275.9ZM290.501 44.225C289.268 44.225 288.326 43.875 287.676 43.175C287.026 42.4583 286.701 41.3833 286.701 39.95V33.025H284.251V31.45H286.701V28.025L288.726 27.45V31.45H292.326V33.025H288.726V39.725C288.726 40.725 288.893 41.4417 289.226 41.875C289.576 42.2917 290.093 42.5 290.776 42.5C291.093 42.5 291.376 42.475 291.626 42.425C291.876 42.3583 292.101 42.2833 292.301 42.2V43.9C292.068 44 291.784 44.075 291.451 44.125C291.134 44.1917 290.818 44.225 290.501 44.225ZM295.151 44V34.35C295.151 33.8833 295.126 33.4083 295.076 32.925C295.043 32.425 295.001 31.9333 294.951 31.45H296.901L297.151 34.2H296.851C297.218 33.2333 297.801 32.5 298.601 32C299.418 31.4833 300.359 31.225 301.426 31.225C302.909 31.225 304.026 31.625 304.776 32.425C305.543 33.2083 305.926 34.45 305.926 36.15V44H303.901V36.275C303.901 35.0917 303.659 34.2333 303.176 33.7C302.709 33.15 301.976 32.875 300.976 32.875C299.809 32.875 298.884 33.2333 298.201 33.95C297.518 34.6667 297.176 35.625 297.176 36.825V44H295.151ZM315.735 44.225C313.768 44.225 312.218 43.6583 311.085 42.525C309.951 41.375 309.385 39.7833 309.385 37.75C309.385 36.4333 309.635 35.2917 310.135 34.325C310.635 33.3417 311.335 32.5833 312.235 32.05C313.135 31.5 314.168 31.225 315.335 31.225C316.485 31.225 317.451 31.4667 318.235 31.95C319.018 32.4333 319.618 33.125 320.035 34.025C320.451 34.9083 320.66 35.9583 320.66 37.175V37.925H310.935V36.65H319.335L318.91 36.975C318.91 35.6417 318.61 34.6 318.01 33.85C317.41 33.1 316.518 32.725 315.335 32.725C314.085 32.725 313.11 33.1667 312.41 34.05C311.71 34.9167 311.36 36.0917 311.36 37.575V37.8C311.36 39.3667 311.743 40.5583 312.51 41.375C313.293 42.175 314.385 42.575 315.785 42.575C316.535 42.575 317.235 42.4667 317.885 42.25C318.551 42.0167 319.185 41.6417 319.785 41.125L320.485 42.55C319.935 43.0833 319.235 43.5 318.385 43.8C317.551 44.0833 316.668 44.225 315.735 44.225ZM324.068 44V34.475C324.068 33.975 324.051 33.4667 324.018 32.95C324.001 32.4333 323.968 31.9333 323.918 31.45H325.868L326.118 34.5L325.768 34.525C325.935 33.775 326.226 33.1583 326.643 32.675C327.06 32.1917 327.551 31.8333 328.118 31.6C328.685 31.35 329.276 31.225 329.893 31.225C330.143 31.225 330.36 31.2333 330.543 31.25C330.743 31.2667 330.926 31.3083 331.093 31.375L331.068 33.175C330.818 33.0917 330.585 33.0417 330.368 33.025C330.168 32.9917 329.935 32.975 329.668 32.975C328.935 32.975 328.293 33.15 327.743 33.5C327.21 33.85 326.801 34.3 326.518 34.85C326.251 35.4 326.118 35.9833 326.118 36.6V44H324.068ZM337.613 44.225C336.613 44.225 335.68 44.0917 334.813 43.825C333.946 43.5417 333.23 43.15 332.663 42.65L333.363 41.225C333.98 41.7083 334.646 42.0667 335.363 42.3C336.096 42.5333 336.855 42.65 337.638 42.65C338.638 42.65 339.388 42.475 339.888 42.125C340.405 41.7583 340.663 41.2583 340.663 40.625C340.663 40.1417 340.496 39.7583 340.163 39.475C339.846 39.175 339.321 38.9417 338.588 38.775L336.263 38.3C335.196 38.0667 334.396 37.675 333.863 37.125C333.33 36.5583 333.063 35.8417 333.063 34.975C333.063 34.2417 333.255 33.6 333.638 33.05C334.021 32.4833 334.58 32.0417 335.313 31.725C336.046 31.3917 336.905 31.225 337.888 31.225C338.805 31.225 339.646 31.3667 340.413 31.65C341.196 31.9167 341.846 32.3083 342.363 32.825L341.638 34.225C341.138 33.7417 340.563 33.3833 339.913 33.15C339.28 32.9 338.621 32.775 337.938 32.775C336.955 32.775 336.213 32.975 335.713 33.375C335.23 33.7583 334.988 34.2667 334.988 34.9C334.988 35.3833 335.138 35.7833 335.438 36.1C335.755 36.4 336.238 36.625 336.888 36.775L339.213 37.25C340.346 37.5 341.188 37.8917 341.738 38.425C342.305 38.9417 342.588 39.6417 342.588 40.525C342.588 41.275 342.38 41.9333 341.963 42.5C341.546 43.05 340.963 43.475 340.213 43.775C339.48 44.075 338.613 44.225 337.613 44.225Z" fill="white"/>
</svg>
