<svg width="401" height="70" viewBox="0 0 401 70" fill="none" xmlns="http://www.w3.org/2000/svg">
<rect x="110" y="0.359375" width="290" height="1" fill="white"/>
<rect x="110" y="68.3594" width="290" height="1" fill="white"/>
<path d="M0.5 1.5H109.5V67.5H0.5V1.5Z" fill="#FFB342" stroke="#FFB342"/>
<path d="M28.104 44.216C26.968 44.216 25.88 44.04 24.84 43.688C23.8 43.336 22.928 42.832 22.224 42.176L22.968 40.64C23.752 41.28 24.56 41.744 25.392 42.032C26.224 42.32 27.12 42.464 28.08 42.464C29.344 42.464 30.304 42.2 30.96 41.672C31.616 41.128 31.944 40.336 31.944 39.296C31.944 38.304 31.608 37.552 30.936 37.04C30.264 36.512 29.28 36.248 27.984 36.248H25.44V34.592H27.816C28.936 34.592 29.824 34.304 30.48 33.728C31.136 33.152 31.464 32.368 31.464 31.376C31.464 30.48 31.16 29.8 30.552 29.336C29.96 28.856 29.104 28.616 27.984 28.616C26.16 28.616 24.584 29.264 23.256 30.56L22.512 29C23.168 28.328 23.992 27.808 24.984 27.44C25.976 27.056 27.016 26.864 28.104 26.864C29.768 26.864 31.072 27.248 32.016 28.016C32.96 28.784 33.432 29.848 33.432 31.208C33.432 32.248 33.136 33.144 32.544 33.896C31.952 34.632 31.152 35.136 30.144 35.408V35.144C31.344 35.336 32.272 35.816 32.928 36.584C33.584 37.336 33.912 38.288 33.912 39.44C33.912 40.912 33.392 42.08 32.352 42.944C31.328 43.792 29.912 44.216 28.104 44.216ZM41.8226 44.216C40.9426 44.216 40.0546 44.032 39.1586 43.664C38.2626 43.28 37.5186 42.784 36.9266 42.176L37.6706 40.616C38.2786 41.24 38.9426 41.704 39.6626 42.008C40.3826 42.312 41.1106 42.464 41.8466 42.464C43.4626 42.464 44.7026 41.888 45.5666 40.736C46.4466 39.568 46.8866 37.824 46.8866 35.504V33.272H47.1266C47.0306 34.168 46.7506 34.952 46.2866 35.624C45.8386 36.296 45.2546 36.808 44.5346 37.16C43.8306 37.512 43.0386 37.688 42.1586 37.688C41.1346 37.688 40.2226 37.464 39.4226 37.016C38.6386 36.568 38.0226 35.936 37.5746 35.12C37.1266 34.304 36.9026 33.384 36.9026 32.36C36.9026 31.288 37.1346 30.344 37.5986 29.528C38.0786 28.696 38.7266 28.048 39.5426 27.584C40.3746 27.104 41.3266 26.864 42.3986 26.864C44.4626 26.864 46.0466 27.584 47.1506 29.024C48.2706 30.464 48.8306 32.496 48.8306 35.12C48.8306 37.056 48.5506 38.704 47.9906 40.064C47.4306 41.424 46.6306 42.456 45.5906 43.16C44.5506 43.864 43.2946 44.216 41.8226 44.216ZM42.5666 36.032C43.3026 36.032 43.9506 35.872 44.5106 35.552C45.0706 35.232 45.5026 34.792 45.8066 34.232C46.1266 33.672 46.2866 33.024 46.2866 32.288C46.2866 31.536 46.1266 30.88 45.8066 30.32C45.5026 29.76 45.0706 29.32 44.5106 29C43.9506 28.68 43.3026 28.52 42.5666 28.52C41.8306 28.52 41.1746 28.68 40.5986 29C40.0386 29.32 39.5986 29.76 39.2786 30.32C38.9746 30.88 38.8226 31.536 38.8226 32.288C38.8226 33.024 38.9746 33.672 39.2786 34.232C39.5986 34.792 40.0386 35.232 40.5986 35.552C41.1746 35.872 41.8306 36.032 42.5666 36.032ZM58.0132 44.216C57.2772 44.216 56.5572 44.136 55.8532 43.976C55.1492 43.816 54.4852 43.584 53.8612 43.28C53.2532 42.976 52.7172 42.608 52.2532 42.176L52.9972 40.64C53.7812 41.264 54.5812 41.728 55.3972 42.032C56.2132 42.32 57.0852 42.464 58.0132 42.464C59.2292 42.464 60.1812 42.136 60.8692 41.48C61.5572 40.824 61.9012 39.96 61.9012 38.888C61.9012 37.784 61.5732 36.88 60.9172 36.176C60.2612 35.472 59.3492 35.12 58.1812 35.12C57.3492 35.12 56.6052 35.288 55.9492 35.624C55.2932 35.944 54.7252 36.448 54.2452 37.136H52.8052V27.08H62.8372V28.76H54.7252V35.504H54.1972C54.6292 34.832 55.2212 34.32 55.9732 33.968C56.7412 33.6 57.6052 33.416 58.5652 33.416C59.6532 33.416 60.5892 33.64 61.3732 34.088C62.1732 34.536 62.7892 35.16 63.2213 35.96C63.6533 36.76 63.8693 37.696 63.8693 38.768C63.8693 39.84 63.6293 40.792 63.1492 41.624C62.6852 42.44 62.0132 43.08 61.1332 43.544C60.2692 43.992 59.2292 44.216 58.0132 44.216ZM73.0039 44.216C70.9559 44.216 69.3719 43.496 68.2519 42.056C67.1479 40.6 66.5959 38.568 66.5959 35.96C66.5959 34.008 66.8759 32.36 67.4359 31.016C67.9959 29.656 68.7959 28.624 69.8359 27.92C70.8759 27.216 72.1319 26.864 73.6039 26.864C74.4839 26.864 75.3719 27.048 76.2679 27.416C77.1639 27.768 77.8999 28.264 78.4759 28.904L77.7559 30.44C77.1479 29.816 76.4839 29.36 75.7639 29.072C75.0439 28.768 74.3159 28.616 73.5799 28.616C71.9479 28.616 70.6919 29.2 69.8119 30.368C68.9479 31.52 68.5159 33.256 68.5159 35.576V37.808H68.2999C68.4119 36.896 68.6839 36.112 69.1159 35.456C69.5639 34.784 70.1479 34.272 70.8679 33.92C71.5879 33.568 72.3879 33.392 73.2679 33.392C74.2919 33.392 75.1959 33.616 75.9799 34.064C76.7639 34.512 77.3799 35.144 77.8279 35.96C78.2759 36.76 78.4999 37.68 78.4999 38.72C78.4999 39.776 78.2679 40.72 77.8039 41.552C77.3399 42.384 76.6919 43.04 75.8599 43.52C75.0279 43.984 74.0759 44.216 73.0039 44.216ZM72.8599 42.536C73.5959 42.536 74.2439 42.384 74.8039 42.08C75.3799 41.76 75.8199 41.32 76.1239 40.76C76.4439 40.184 76.6039 39.528 76.6039 38.792C76.6039 38.056 76.4439 37.408 76.1239 36.848C75.8199 36.288 75.3799 35.848 74.8039 35.528C74.2439 35.208 73.5959 35.048 72.8599 35.048C72.1239 35.048 71.4759 35.208 70.9159 35.528C70.3559 35.848 69.9159 36.288 69.5959 36.848C69.2919 37.408 69.1399 38.056 69.1399 38.792C69.1399 39.528 69.2919 40.184 69.5959 40.76C69.9159 41.32 70.3559 41.76 70.9159 42.08C71.4759 42.384 72.1239 42.536 72.8599 42.536Z" fill="#1C2752"/>
<path d="M132.2 44V26.375H139.375C141.225 26.375 142.65 26.825 143.65 27.725C144.65 28.6083 145.15 29.8417 145.15 31.425C145.15 32.975 144.65 34.2083 143.65 35.125C142.65 36.025 141.225 36.475 139.375 36.475H134.275V44H132.2ZM134.275 34.75H139.175C140.458 34.75 141.425 34.4583 142.075 33.875C142.742 33.2917 143.075 32.475 143.075 31.425C143.075 30.3583 142.742 29.5333 142.075 28.95C141.425 28.3667 140.458 28.075 139.175 28.075H134.275V34.75ZM148.325 44V34.475C148.325 33.975 148.308 33.4667 148.275 32.95C148.258 32.4333 148.225 31.9333 148.175 31.45H150.125L150.375 34.5L150.025 34.525C150.192 33.775 150.483 33.1583 150.9 32.675C151.317 32.1917 151.808 31.8333 152.375 31.6C152.942 31.35 153.533 31.225 154.15 31.225C154.4 31.225 154.617 31.2333 154.8 31.25C155 31.2667 155.183 31.3083 155.35 31.375L155.325 33.175C155.075 33.0917 154.842 33.0417 154.625 33.025C154.425 32.9917 154.192 32.975 153.925 32.975C153.192 32.975 152.55 33.15 152 33.5C151.467 33.85 151.058 34.3 150.775 34.85C150.508 35.4 150.375 35.9833 150.375 36.6V44H148.325ZM162.821 44.225C161.621 44.225 160.571 43.9667 159.671 43.45C158.787 42.9167 158.104 42.1667 157.621 41.2C157.137 40.2167 156.896 39.0583 156.896 37.725C156.896 36.375 157.137 35.2167 157.621 34.25C158.104 33.2833 158.787 32.5417 159.671 32.025C160.571 31.4917 161.621 31.225 162.821 31.225C164.037 31.225 165.087 31.4917 165.971 32.025C166.871 32.5417 167.562 33.2833 168.046 34.25C168.546 35.2167 168.796 36.375 168.796 37.725C168.796 39.0583 168.546 40.2167 168.046 41.2C167.562 42.1667 166.871 42.9167 165.971 43.45C165.087 43.9667 164.037 44.225 162.821 44.225ZM162.821 42.575C164.021 42.575 164.971 42.1667 165.671 41.35C166.371 40.5167 166.721 39.3083 166.721 37.725C166.721 36.125 166.362 34.9167 165.646 34.1C164.946 33.2667 164.004 32.85 162.821 32.85C161.637 32.85 160.696 33.2667 159.996 34.1C159.296 34.9167 158.946 36.125 158.946 37.725C158.946 39.3083 159.296 40.5167 159.996 41.35C160.696 42.1667 161.637 42.575 162.821 42.575ZM170.663 49.5C170.429 49.5 170.138 49.4667 169.788 49.4C169.438 49.35 169.146 49.2833 168.913 49.2V47.5C169.113 47.5667 169.346 47.625 169.613 47.675C169.879 47.7417 170.129 47.775 170.363 47.775C171.063 47.775 171.579 47.55 171.913 47.1C172.263 46.6667 172.438 45.95 172.438 44.95V31.45H174.463V45.15C174.463 46.5833 174.146 47.6667 173.513 48.4C172.896 49.1333 171.946 49.5 170.663 49.5ZM172.213 28.6V26.325H174.688V28.6H172.213ZM184.205 44.225C182.238 44.225 180.688 43.6583 179.555 42.525C178.422 41.375 177.855 39.7833 177.855 37.75C177.855 36.4333 178.105 35.2917 178.605 34.325C179.105 33.3417 179.805 32.5833 180.705 32.05C181.605 31.5 182.638 31.225 183.805 31.225C184.955 31.225 185.922 31.4667 186.705 31.95C187.488 32.4333 188.088 33.125 188.505 34.025C188.922 34.9083 189.13 35.9583 189.13 37.175V37.925H179.405V36.65H187.805L187.38 36.975C187.38 35.6417 187.08 34.6 186.48 33.85C185.88 33.1 184.988 32.725 183.805 32.725C182.555 32.725 181.58 33.1667 180.88 34.05C180.18 34.9167 179.83 36.0917 179.83 37.575V37.8C179.83 39.3667 180.213 40.5583 180.98 41.375C181.763 42.175 182.855 42.575 184.255 42.575C185.005 42.575 185.705 42.4667 186.355 42.25C187.022 42.0167 187.655 41.6417 188.255 41.125L188.955 42.55C188.405 43.0833 187.705 43.5 186.855 43.8C186.022 44.0833 185.138 44.225 184.205 44.225ZM197.863 44.225C196.63 44.225 195.555 43.9583 194.638 43.425C193.738 42.8917 193.038 42.1333 192.538 41.15C192.055 40.1667 191.813 39 191.813 37.65C191.813 36.2833 192.063 35.125 192.563 34.175C193.063 33.2083 193.763 32.475 194.663 31.975C195.58 31.475 196.647 31.225 197.863 31.225C198.663 31.225 199.438 31.3667 200.188 31.65C200.955 31.9333 201.588 32.3333 202.088 32.85L201.363 34.3C200.863 33.8167 200.313 33.4583 199.713 33.225C199.13 32.9917 198.555 32.875 197.988 32.875C196.688 32.875 195.68 33.2833 194.963 34.1C194.247 34.9167 193.888 36.1083 193.888 37.675C193.888 39.225 194.247 40.425 194.963 41.275C195.68 42.125 196.688 42.55 197.988 42.55C198.538 42.55 199.105 42.4417 199.688 42.225C200.288 42.0083 200.847 41.65 201.363 41.15L202.088 42.575C201.572 43.1083 200.93 43.5167 200.163 43.8C199.397 44.0833 198.63 44.225 197.863 44.225ZM209.776 44.225C208.543 44.225 207.601 43.875 206.951 43.175C206.301 42.4583 205.976 41.3833 205.976 39.95V33.025H203.526V31.45H205.976V28.025L208.001 27.45V31.45H211.601V33.025H208.001V39.725C208.001 40.725 208.168 41.4417 208.501 41.875C208.851 42.2917 209.368 42.5 210.051 42.5C210.368 42.5 210.651 42.475 210.901 42.425C211.151 42.3583 211.376 42.2833 211.576 42.2V43.9C211.343 44 211.06 44.075 210.726 44.125C210.41 44.1917 210.093 44.225 209.776 44.225ZM221.53 44V26.375H227.38C229.33 26.375 230.98 26.7167 232.33 27.4C233.68 28.0667 234.705 29.0583 235.405 30.375C236.105 31.675 236.455 33.275 236.455 35.175C236.455 37.0583 236.105 38.6583 235.405 39.975C234.705 41.2917 233.68 42.2917 232.33 42.975C230.98 43.6583 229.33 44 227.38 44H221.53ZM223.605 42.225H227.23C229.63 42.225 231.414 41.6417 232.58 40.475C233.747 39.2917 234.33 37.525 234.33 35.175C234.33 32.8083 233.747 31.0417 232.58 29.875C231.414 28.7083 229.63 28.125 227.23 28.125H223.605V42.225ZM245.492 44.225C244.292 44.225 243.242 43.9667 242.342 43.45C241.459 42.9167 240.775 42.1667 240.292 41.2C239.809 40.2167 239.567 39.0583 239.567 37.725C239.567 36.375 239.809 35.2167 240.292 34.25C240.775 33.2833 241.459 32.5417 242.342 32.025C243.242 31.4917 244.292 31.225 245.492 31.225C246.709 31.225 247.759 31.4917 248.642 32.025C249.542 32.5417 250.234 33.2833 250.717 34.25C251.217 35.2167 251.467 36.375 251.467 37.725C251.467 39.0583 251.217 40.2167 250.717 41.2C250.234 42.1667 249.542 42.9167 248.642 43.45C247.759 43.9667 246.709 44.225 245.492 44.225ZM245.492 42.575C246.692 42.575 247.642 42.1667 248.342 41.35C249.042 40.5167 249.392 39.3083 249.392 37.725C249.392 36.125 249.034 34.9167 248.317 34.1C247.617 33.2667 246.675 32.85 245.492 32.85C244.309 32.85 243.367 33.2667 242.667 34.1C241.967 34.9167 241.617 36.125 241.617 37.725C241.617 39.3083 241.967 40.5167 242.667 41.35C243.367 42.1667 244.309 42.575 245.492 42.575ZM254.984 44V34.35C254.984 33.8833 254.959 33.4083 254.909 32.925C254.876 32.425 254.834 31.9333 254.784 31.45H256.734L256.984 34.2H256.684C257.051 33.2333 257.634 32.5 258.434 32C259.251 31.4833 260.193 31.225 261.259 31.225C262.743 31.225 263.859 31.625 264.609 32.425C265.376 33.2083 265.759 34.45 265.759 36.15V44H263.734V36.275C263.734 35.0917 263.493 34.2333 263.009 33.7C262.543 33.15 261.809 32.875 260.809 32.875C259.643 32.875 258.718 33.2333 258.034 33.95C257.351 34.6667 257.009 35.625 257.009 36.825V44H254.984ZM275.568 44.225C273.601 44.225 272.051 43.6583 270.918 42.525C269.784 41.375 269.218 39.7833 269.218 37.75C269.218 36.4333 269.468 35.2917 269.968 34.325C270.468 33.3417 271.168 32.5833 272.068 32.05C272.968 31.5 274.001 31.225 275.168 31.225C276.318 31.225 277.284 31.4667 278.068 31.95C278.851 32.4333 279.451 33.125 279.868 34.025C280.284 34.9083 280.493 35.9583 280.493 37.175V37.925H270.768V36.65H279.168L278.743 36.975C278.743 35.6417 278.443 34.6 277.843 33.85C277.243 33.1 276.351 32.725 275.168 32.725C273.918 32.725 272.943 33.1667 272.243 34.05C271.543 34.9167 271.193 36.0917 271.193 37.575V37.8C271.193 39.3667 271.576 40.5583 272.343 41.375C273.126 42.175 274.218 42.575 275.618 42.575C276.368 42.575 277.068 42.4667 277.718 42.25C278.384 42.0167 279.018 41.6417 279.618 41.125L280.318 42.55C279.768 43.0833 279.068 43.5 278.218 43.8C277.384 44.0833 276.501 44.225 275.568 44.225Z" fill="white"/>
<rect x="400" y="1.35938" width="1" height="67" fill="white"/>
</svg>
