<svg width="401" height="70" viewBox="0 0 401 70" fill="none" xmlns="http://www.w3.org/2000/svg">
<path d="M0.5 1.5H109.5V67.5H0.5V1.5Z" fill="#FFB342" stroke="#FFB342"/>
<path d="M28.5 44.225C26.4833 44.225 24.925 43.8 23.825 42.95C22.725 42.0833 22.175 40.875 22.175 39.325C22.175 38.1083 22.55 37.1 23.3 36.3C24.05 35.4833 25.0417 34.9917 26.275 34.825V35.2C25.1583 34.9667 24.2667 34.4583 23.6 33.675C22.9333 32.875 22.6 31.9333 22.6 30.85C22.6 29.3667 23.125 28.2167 24.175 27.4C25.225 26.5667 26.6667 26.15 28.5 26.15C30.35 26.15 31.8 26.5667 32.85 27.4C33.9 28.2167 34.425 29.3667 34.425 30.85C34.425 31.9333 34.1083 32.875 33.475 33.675C32.8583 34.475 31.9917 34.975 30.875 35.175V34.825C32.0917 34.9917 33.0583 35.4833 33.775 36.3C34.4917 37.1 34.85 38.1083 34.85 39.325C34.85 40.875 34.3 42.0833 33.2 42.95C32.1 43.8 30.5333 44.225 28.5 44.225ZM28.5 42.525C29.9667 42.525 31.0583 42.25 31.775 41.7C32.5083 41.15 32.875 40.3167 32.875 39.2C32.875 38.1 32.5083 37.2833 31.775 36.75C31.0583 36.2 29.9667 35.925 28.5 35.925C27.0333 35.925 25.9333 36.2 25.2 36.75C24.4833 37.2833 24.125 38.1 24.125 39.2C24.125 40.3167 24.4917 41.15 25.225 41.7C25.9583 42.25 27.05 42.525 28.5 42.525ZM28.5 34.225C29.7667 34.225 30.7333 33.9417 31.4 33.375C32.0833 32.8083 32.425 32.025 32.425 31.025C32.425 30.025 32.0833 29.25 31.4 28.7C30.7333 28.1333 29.7667 27.85 28.5 27.85C27.2333 27.85 26.2583 28.1333 25.575 28.7C24.9083 29.25 24.575 30.025 24.575 31.025C24.575 32.025 24.9083 32.8083 25.575 33.375C26.2583 33.9417 27.2333 34.225 28.5 34.225ZM44.1752 44.225C43.4086 44.225 42.6586 44.1417 41.9252 43.975C41.1919 43.8083 40.5002 43.5667 39.8502 43.25C39.2169 42.9333 38.6586 42.55 38.1752 42.1L38.9502 40.5C39.7669 41.15 40.6002 41.6333 41.4502 41.95C42.3002 42.25 43.2086 42.4 44.1752 42.4C45.4419 42.4 46.4336 42.0583 47.1502 41.375C47.8669 40.6917 48.2252 39.7917 48.2252 38.675C48.2252 37.525 47.8836 36.5833 47.2002 35.85C46.5169 35.1167 45.5669 34.75 44.3502 34.75C43.4836 34.75 42.7086 34.925 42.0252 35.275C41.3419 35.6083 40.7502 36.1333 40.2502 36.85H38.7502V26.375H49.2002V28.125H40.7502V35.15H40.2002C40.6502 34.45 41.2669 33.9167 42.0502 33.55C42.8502 33.1667 43.7502 32.975 44.7502 32.975C45.8836 32.975 46.8586 33.2083 47.6752 33.675C48.5086 34.1417 49.1502 34.7917 49.6002 35.625C50.0502 36.4583 50.2752 37.4333 50.2752 38.55C50.2752 39.6667 50.0252 40.6583 49.5252 41.525C49.0419 42.375 48.3419 43.0417 47.4252 43.525C46.5252 43.9917 45.4419 44.225 44.1752 44.225ZM61.3505 44V40.175H52.9505V38.675L61.6755 26.375H63.3755V38.5H66.0755V40.175H63.3755V44H61.3505ZM61.3505 38.5V28.825H61.9005L54.6505 39.025V38.5H61.3505Z" fill="#1C2752"/>
<rect x="400" y="1.35938" width="1" height="67" fill="white"/>
<path d="M132.2 44V26.375H139.375C141.225 26.375 142.65 26.825 143.65 27.725C144.65 28.6083 145.15 29.8417 145.15 31.425C145.15 32.975 144.65 34.2083 143.65 35.125C142.65 36.025 141.225 36.475 139.375 36.475H134.275V44H132.2ZM134.275 34.75H139.175C140.458 34.75 141.425 34.4583 142.075 33.875C142.742 33.2917 143.075 32.475 143.075 31.425C143.075 30.3583 142.742 29.5333 142.075 28.95C141.425 28.3667 140.458 28.075 139.175 28.075H134.275V34.75ZM153.657 44.225C151.69 44.225 150.14 43.6583 149.007 42.525C147.874 41.375 147.307 39.7833 147.307 37.75C147.307 36.4333 147.557 35.2917 148.057 34.325C148.557 33.3417 149.257 32.5833 150.157 32.05C151.057 31.5 152.09 31.225 153.257 31.225C154.407 31.225 155.374 31.4667 156.157 31.95C156.94 32.4333 157.54 33.125 157.957 34.025C158.374 34.9083 158.582 35.9583 158.582 37.175V37.925H148.857V36.65H157.257L156.832 36.975C156.832 35.6417 156.532 34.6 155.932 33.85C155.332 33.1 154.44 32.725 153.257 32.725C152.007 32.725 151.032 33.1667 150.332 34.05C149.632 34.9167 149.282 36.0917 149.282 37.575V37.8C149.282 39.3667 149.665 40.5583 150.432 41.375C151.215 42.175 152.307 42.575 153.707 42.575C154.457 42.575 155.157 42.4667 155.807 42.25C156.474 42.0167 157.107 41.6417 157.707 41.125L158.407 42.55C157.857 43.0833 157.157 43.5 156.307 43.8C155.474 44.0833 154.59 44.225 153.657 44.225ZM167.191 44.225C165.991 44.225 164.941 43.9667 164.041 43.45C163.157 42.9167 162.474 42.1667 161.991 41.2C161.507 40.2167 161.266 39.0583 161.266 37.725C161.266 36.375 161.507 35.2167 161.991 34.25C162.474 33.2833 163.157 32.5417 164.041 32.025C164.941 31.4917 165.991 31.225 167.191 31.225C168.407 31.225 169.457 31.4917 170.341 32.025C171.241 32.5417 171.932 33.2833 172.416 34.25C172.916 35.2167 173.166 36.375 173.166 37.725C173.166 39.0583 172.916 40.2167 172.416 41.2C171.932 42.1667 171.241 42.9167 170.341 43.45C169.457 43.9667 168.407 44.225 167.191 44.225ZM167.191 42.575C168.391 42.575 169.341 42.1667 170.041 41.35C170.741 40.5167 171.091 39.3083 171.091 37.725C171.091 36.125 170.732 34.9167 170.016 34.1C169.316 33.2667 168.374 32.85 167.191 32.85C166.007 32.85 165.066 33.2667 164.366 34.1C163.666 34.9167 163.316 36.125 163.316 37.725C163.316 39.3083 163.666 40.5167 164.366 41.35C165.066 42.1667 166.007 42.575 167.191 42.575ZM176.683 49.4V34.35C176.683 33.8833 176.658 33.4083 176.608 32.925C176.575 32.425 176.533 31.9333 176.483 31.45H178.433L178.708 34.425H178.408C178.675 33.4417 179.216 32.6667 180.033 32.1C180.85 31.5167 181.825 31.225 182.958 31.225C184.091 31.225 185.066 31.4833 185.883 32C186.716 32.5167 187.366 33.2583 187.833 34.225C188.3 35.1917 188.533 36.3583 188.533 37.725C188.533 39.075 188.3 40.2333 187.833 41.2C187.383 42.1667 186.741 42.9167 185.908 43.45C185.075 43.9667 184.091 44.225 182.958 44.225C181.841 44.225 180.875 43.9417 180.058 43.375C179.241 42.8083 178.7 42.0333 178.433 41.05H178.708V49.4H176.683ZM182.558 42.575C183.758 42.575 184.708 42.1667 185.408 41.35C186.125 40.5167 186.483 39.3083 186.483 37.725C186.483 36.125 186.125 34.9167 185.408 34.1C184.708 33.2667 183.758 32.85 182.558 32.85C181.375 32.85 180.425 33.2667 179.708 34.1C179.008 34.9167 178.658 36.125 178.658 37.725C178.658 39.3083 179.008 40.5167 179.708 41.35C180.425 42.1667 181.375 42.575 182.558 42.575ZM192.033 44V25.6H194.058V44H192.033ZM203.925 44.225C201.959 44.225 200.409 43.6583 199.275 42.525C198.142 41.375 197.575 39.7833 197.575 37.75C197.575 36.4333 197.825 35.2917 198.325 34.325C198.825 33.3417 199.525 32.5833 200.425 32.05C201.325 31.5 202.359 31.225 203.525 31.225C204.675 31.225 205.642 31.4667 206.425 31.95C207.209 32.4333 207.809 33.125 208.225 34.025C208.642 34.9083 208.85 35.9583 208.85 37.175V37.925H199.125V36.65H207.525L207.1 36.975C207.1 35.6417 206.8 34.6 206.2 33.85C205.6 33.1 204.709 32.725 203.525 32.725C202.275 32.725 201.3 33.1667 200.6 34.05C199.9 34.9167 199.55 36.0917 199.55 37.575V37.8C199.55 39.3667 199.934 40.5583 200.7 41.375C201.484 42.175 202.575 42.575 203.975 42.575C204.725 42.575 205.425 42.4667 206.075 42.25C206.742 42.0167 207.375 41.6417 207.975 41.125L208.675 42.55C208.125 43.0833 207.425 43.5 206.575 43.8C205.742 44.0833 204.859 44.225 203.925 44.225ZM224.212 44L218.062 26.375H220.237L225.612 42.25H224.737L230.387 26.375H232.037L237.387 42.25H236.587L242.112 26.375H244.162L237.962 44H236.112L230.912 28.725H231.437L226.012 44H224.212ZM251.04 44.225C249.84 44.225 248.79 43.9667 247.89 43.45C247.007 42.9167 246.323 42.1667 245.84 41.2C245.357 40.2167 245.115 39.0583 245.115 37.725C245.115 36.375 245.357 35.2167 245.84 34.25C246.323 33.2833 247.007 32.5417 247.89 32.025C248.79 31.4917 249.84 31.225 251.04 31.225C252.257 31.225 253.307 31.4917 254.19 32.025C255.09 32.5417 255.782 33.2833 256.265 34.25C256.765 35.2167 257.015 36.375 257.015 37.725C257.015 39.0583 256.765 40.2167 256.265 41.2C255.782 42.1667 255.09 42.9167 254.19 43.45C253.307 43.9667 252.257 44.225 251.04 44.225ZM251.04 42.575C252.24 42.575 253.19 42.1667 253.89 41.35C254.59 40.5167 254.94 39.3083 254.94 37.725C254.94 36.125 254.582 34.9167 253.865 34.1C253.165 33.2667 252.223 32.85 251.04 32.85C249.857 32.85 248.915 33.2667 248.215 34.1C247.515 34.9167 247.165 36.125 247.165 37.725C247.165 39.3083 247.515 40.5167 248.215 41.35C248.915 42.1667 249.857 42.575 251.04 42.575ZM260.482 44V34.475C260.482 33.975 260.466 33.4667 260.432 32.95C260.416 32.4333 260.382 31.9333 260.332 31.45H262.282L262.532 34.5L262.182 34.525C262.349 33.775 262.641 33.1583 263.057 32.675C263.474 32.1917 263.966 31.8333 264.532 31.6C265.099 31.35 265.691 31.225 266.307 31.225C266.557 31.225 266.774 31.2333 266.957 31.25C267.157 31.2667 267.341 31.3083 267.507 31.375L267.482 33.175C267.232 33.0917 266.999 33.0417 266.782 33.025C266.582 32.9917 266.349 32.975 266.082 32.975C265.349 32.975 264.707 33.15 264.157 33.5C263.624 33.85 263.216 34.3 262.932 34.85C262.666 35.4 262.532 35.9833 262.532 36.6V44H260.482ZM269.974 44V25.6H271.999V37.025H272.049L277.874 31.45H280.424L273.549 38L273.599 36.975L281.074 44H278.449L272.049 38.1H271.999V44H269.974ZM283.201 44V31.45H285.226V44H283.201ZM282.951 28.6V26.325H285.451V28.6H282.951ZM289.518 44V34.35C289.518 33.8833 289.493 33.4083 289.443 32.925C289.409 32.425 289.368 31.9333 289.318 31.45H291.268L291.518 34.2H291.218C291.584 33.2333 292.168 32.5 292.968 32C293.784 31.4833 294.726 31.225 295.793 31.225C297.276 31.225 298.393 31.625 299.143 32.425C299.909 33.2083 300.293 34.45 300.293 36.15V44H298.268V36.275C298.268 35.0917 298.026 34.2333 297.543 33.7C297.076 33.15 296.343 32.875 295.343 32.875C294.176 32.875 293.251 33.2333 292.568 33.95C291.884 34.6667 291.543 35.625 291.543 36.825V44H289.518ZM310.051 49.575C308.968 49.575 307.968 49.4417 307.051 49.175C306.134 48.9083 305.309 48.5 304.576 47.95L305.176 46.425C305.693 46.7917 306.201 47.0833 306.701 47.3C307.201 47.5167 307.718 47.675 308.251 47.775C308.784 47.8917 309.351 47.95 309.951 47.95C311.184 47.95 312.118 47.625 312.751 46.975C313.384 46.325 313.701 45.4 313.701 44.2V40.525H313.951C313.684 41.5083 313.134 42.2917 312.301 42.875C311.468 43.4417 310.493 43.725 309.376 43.725C308.226 43.725 307.226 43.475 306.376 42.975C305.543 42.4583 304.893 41.7333 304.426 40.8C303.976 39.85 303.751 38.7333 303.751 37.45C303.751 36.1833 303.976 35.0833 304.426 34.15C304.893 33.2167 305.543 32.5 306.376 32C307.226 31.4833 308.226 31.225 309.376 31.225C310.509 31.225 311.484 31.5083 312.301 32.075C313.134 32.6417 313.684 33.425 313.951 34.425L313.701 34.175L313.926 31.45H315.901C315.834 31.9333 315.784 32.425 315.751 32.925C315.718 33.4083 315.701 33.8833 315.701 34.35V43.925C315.701 45.7917 315.218 47.2 314.251 48.15C313.301 49.1 311.901 49.575 310.051 49.575ZM309.751 42.075C310.968 42.075 311.926 41.675 312.626 40.875C313.326 40.0583 313.676 38.9167 313.676 37.45C313.676 35.9833 313.326 34.85 312.626 34.05C311.926 33.25 310.968 32.85 309.751 32.85C308.551 32.85 307.593 33.25 306.876 34.05C306.159 34.85 305.801 35.9833 305.801 37.45C305.801 38.9167 306.159 40.0583 306.876 40.875C307.593 41.675 308.551 42.075 309.751 42.075Z" fill="white"/>
<rect x="110" y="68.3594" width="290" height="1" fill="white"/>
<rect x="110" y="0.359375" width="290" height="1" fill="white"/>
</svg>
