<svg width="174" height="28" viewBox="0 0 174 28" fill="none" xmlns="http://www.w3.org/2000/svg">
<path d="M0 1H174V28H0V1Z" fill="#F4F4F4"/>
<path d="M38 12.1683V24.1649C38 24.5074 37.945 24.8465 37.8382 25.1629C37.7315 25.4793 37.5749 25.7668 37.3776 26.009C37.1803 26.2511 36.946 26.4433 36.6882 26.5742C36.4304 26.7053 36.1541 26.7728 35.875 26.7728H23.125C22.5614 26.7728 22.0209 26.498 21.6224 26.009C21.2239 25.5199 21 24.8566 21 24.1649V8.51713C21 7.82546 21.2239 7.16211 21.6224 6.67303C22.0209 6.18394 22.5614 5.90918 23.125 5.90918H32.0224" stroke="#FFB342" stroke-width="2" stroke-linecap="round" stroke-linejoin="round"/>
<path d="M41.7779 1.35235C41.698 1.2446 41.6011 1.15785 41.4931 1.09734C41.3851 1.03683 41.2682 1.00383 41.1496 1.00031C41.0309 0.996801 40.9128 1.02286 40.8026 1.0769C40.6923 1.13095 40.5921 1.21187 40.5081 1.31477L39.8316 2.1409C39.7496 2.24158 39.7036 2.37808 39.7036 2.52042C39.7036 2.66275 39.7496 2.79926 39.8316 2.89993L40.4518 3.65962C40.4924 3.70974 40.5407 3.74951 40.5939 3.77666C40.6472 3.80379 40.7042 3.81776 40.7618 3.81776C40.8195 3.81776 40.8765 3.80379 40.9297 3.77666C40.9829 3.74951 41.0313 3.70974 41.0719 3.65962L41.7314 2.85429C42.065 2.44559 42.0962 1.77985 41.7779 1.35235ZM38.4639 3.81868L28.5918 15.9121C28.5319 15.9852 28.4884 16.0761 28.4655 16.1758L28.0088 17.8448C27.9979 17.8901 27.9971 17.9382 28.0066 17.984C28.0161 18.0298 28.0354 18.0716 28.0626 18.105C28.0899 18.1384 28.1239 18.1622 28.1612 18.1737C28.1985 18.1854 28.2377 18.1844 28.2746 18.171L29.6336 17.6106C29.7149 17.5824 29.7889 17.529 29.8485 17.4556L39.7031 5.3394C39.7943 5.22632 39.8454 5.07367 39.8454 4.9146C39.8454 4.75552 39.7943 4.60287 39.7031 4.48979L39.159 3.81868C39.0667 3.70577 38.9417 3.64237 38.8114 3.64237C38.6811 3.64237 38.5562 3.70577 38.4639 3.81868Z" fill="#FFB342"/>
<path d="M52.8693 9.31534V7.90909H62.6875V9.31534H58.571V21H56.9858V9.31534H52.8693ZM67.9822 21.2045C67.0361 21.2045 66.2201 20.9957 65.534 20.5781C64.8522 20.1562 64.3259 19.5682 63.9552 18.8139C63.5887 18.0554 63.4055 17.1733 63.4055 16.1676C63.4055 15.1619 63.5887 14.2756 63.9552 13.5085C64.3259 12.7372 64.8415 12.1364 65.502 11.706C66.1668 11.2713 66.9424 11.054 67.8287 11.054C68.3401 11.054 68.8451 11.1392 69.3437 11.3097C69.8422 11.4801 70.2961 11.7571 70.7052 12.1406C71.1143 12.5199 71.4403 13.0227 71.6832 13.6491C71.9261 14.2756 72.0475 15.0469 72.0475 15.9631V16.6023H64.4793V15.2983H70.5134C70.5134 14.7443 70.4026 14.25 70.181 13.8153C69.9637 13.3807 69.6526 13.0376 69.2478 12.7862C68.8472 12.5348 68.3742 12.4091 67.8287 12.4091C67.2279 12.4091 66.708 12.5582 66.2691 12.8565C65.8344 13.1506 65.4999 13.5341 65.2655 14.0071C65.0312 14.4801 64.914 14.9872 64.914 15.5284V16.3977C64.914 17.1392 65.0418 17.7678 65.2975 18.2834C65.5574 18.7947 65.9175 19.1847 66.3778 19.4531C66.838 19.7173 67.3728 19.8494 67.9822 19.8494C68.3785 19.8494 68.7364 19.794 69.056 19.6832C69.3799 19.5682 69.659 19.3977 69.8934 19.1719C70.1278 18.9418 70.3089 18.6562 70.4367 18.3153L71.8941 18.7244C71.7407 19.2188 71.4829 19.6534 71.1207 20.0284C70.7584 20.3991 70.311 20.6889 69.7783 20.8977C69.2457 21.1023 68.6469 21.2045 67.9822 21.2045ZM81.6568 13.3807L80.3017 13.7642C80.2164 13.5384 80.0907 13.3189 79.9245 13.1058C79.7626 12.8885 79.541 12.7095 79.2598 12.5689C78.9785 12.4283 78.6184 12.358 78.1795 12.358C77.5787 12.358 77.078 12.4964 76.6774 12.7734C76.2811 13.0462 76.0829 13.3935 76.0829 13.8153C76.0829 14.1903 76.2193 14.4865 76.492 14.7038C76.7647 14.9212 77.1909 15.1023 77.7704 15.2472L79.2278 15.6051C80.1057 15.8182 80.7598 16.1442 81.1902 16.5831C81.6206 17.0178 81.8358 17.5781 81.8358 18.2642C81.8358 18.8267 81.6738 19.3295 81.35 19.7727C81.0304 20.2159 80.5829 20.5653 80.0076 20.821C79.4324 21.0767 78.7633 21.2045 78.0005 21.2045C76.9991 21.2045 76.1703 20.9872 75.514 20.5526C74.8578 20.1179 74.4423 19.483 74.2676 18.6477L75.6994 18.2898C75.8358 18.8182 76.0936 19.2145 76.4728 19.4787C76.8564 19.7429 77.3571 19.875 77.975 19.875C78.6781 19.875 79.2363 19.7259 79.6497 19.4276C80.0673 19.125 80.2761 18.7628 80.2761 18.3409C80.2761 18 80.1568 17.7145 79.9182 17.4844C79.6795 17.25 79.313 17.0753 78.8187 16.9602L77.1824 16.5767C76.2832 16.3636 75.6227 16.0334 75.2008 15.5859C74.7832 15.1342 74.5744 14.5696 74.5744 13.892C74.5744 13.3381 74.7299 12.848 75.041 12.4219C75.3564 11.9957 75.7846 11.6612 76.3258 11.4183C76.8713 11.1754 77.4892 11.054 78.1795 11.054C79.1511 11.054 79.9139 11.267 80.4679 11.6932C81.0261 12.1193 81.4224 12.6818 81.6568 13.3807ZM88.7364 11.1818V12.4602H83.6484V11.1818H88.7364ZM85.1313 8.82955H86.6398V18.1875C86.6398 18.6136 86.7016 18.9332 86.8252 19.1463C86.953 19.3551 87.115 19.4957 87.311 19.5682C87.5113 19.6364 87.7222 19.6705 87.9438 19.6705C88.11 19.6705 88.2464 19.6619 88.3529 19.6449C88.4594 19.6236 88.5447 19.6065 88.6086 19.5938L88.9154 20.9489C88.8131 20.9872 88.6704 21.0256 88.4871 21.0639C88.3039 21.1065 88.0717 21.1278 87.7904 21.1278C87.3643 21.1278 86.9467 21.0362 86.5376 20.853C86.1327 20.6697 85.7961 20.3906 85.5276 20.0156C85.2634 19.6406 85.1313 19.1676 85.1313 18.5966V8.82955ZM91.3656 21V11.1818H92.8741V21H91.3656ZM92.1326 9.54545C91.8386 9.54545 91.5851 9.44531 91.372 9.24503C91.1632 9.04474 91.0588 8.80398 91.0588 8.52273C91.0588 8.24148 91.1632 8.00071 91.372 7.80043C91.5851 7.60014 91.8386 7.5 92.1326 7.5C92.4267 7.5 92.6781 7.60014 92.8869 7.80043C93.1 8.00071 93.2065 8.24148 93.2065 8.52273C93.2065 8.80398 93.1 9.04474 92.8869 9.24503C92.6781 9.44531 92.4267 9.54545 92.1326 9.54545ZM95.9971 21V11.1818H97.4545V12.7159H97.5823C97.7869 12.1918 98.1171 11.7848 98.5731 11.495C99.029 11.201 99.5766 11.054 100.216 11.054C100.864 11.054 101.403 11.201 101.833 11.495C102.268 11.7848 102.606 12.1918 102.849 12.7159H102.952C103.203 12.2088 103.58 11.8061 104.083 11.5078C104.586 11.2053 105.189 11.054 105.892 11.054C106.77 11.054 107.488 11.3288 108.046 11.8786C108.604 12.424 108.883 13.2741 108.883 14.429V21H107.375V14.429C107.375 13.7045 107.177 13.1868 106.78 12.8757C106.384 12.5646 105.918 12.4091 105.381 12.4091C104.69 12.4091 104.155 12.6179 103.776 13.0355C103.397 13.4489 103.207 13.973 103.207 14.608V21H101.673V14.2756C101.673 13.7173 101.492 13.2678 101.13 12.9268C100.768 12.5817 100.301 12.4091 99.73 12.4091C99.338 12.4091 98.9715 12.5135 98.6306 12.7223C98.294 12.9311 98.0212 13.2209 97.8124 13.5916C97.6079 13.9581 97.5056 14.3821 97.5056 14.8636V21H95.9971ZM115.99 21.2045C115.104 21.2045 114.326 20.9936 113.657 20.5717C112.992 20.1499 112.472 19.5597 112.097 18.8011C111.727 18.0426 111.541 17.1562 111.541 16.142C111.541 15.1193 111.727 14.2266 112.097 13.4638C112.472 12.701 112.992 12.1087 113.657 11.6868C114.326 11.2649 115.104 11.054 115.99 11.054C116.877 11.054 117.652 11.2649 118.317 11.6868C118.986 12.1087 119.506 12.701 119.877 13.4638C120.252 14.2266 120.439 15.1193 120.439 16.142C120.439 17.1562 120.252 18.0426 119.877 18.8011C119.506 19.5597 118.986 20.1499 118.317 20.5717C117.652 20.9936 116.877 21.2045 115.99 21.2045ZM115.99 19.8494C116.664 19.8494 117.218 19.6768 117.652 19.3317C118.087 18.9865 118.409 18.5327 118.617 17.9702C118.826 17.4077 118.931 16.7983 118.931 16.142C118.931 15.4858 118.826 14.8743 118.617 14.3075C118.409 13.7408 118.087 13.2827 117.652 12.9332C117.218 12.5838 116.664 12.4091 115.99 12.4091C115.317 12.4091 114.763 12.5838 114.328 12.9332C113.894 13.2827 113.572 13.7408 113.363 14.3075C113.154 14.8743 113.05 15.4858 113.05 16.142C113.05 16.7983 113.154 17.4077 113.363 17.9702C113.572 18.5327 113.894 18.9865 114.328 19.3317C114.763 19.6768 115.317 19.8494 115.99 19.8494ZM124.61 15.0938V21H123.102V11.1818H124.559V12.7159H124.687C124.917 12.2173 125.267 11.8168 125.735 11.5142C126.204 11.2074 126.809 11.054 127.551 11.054C128.215 11.054 128.797 11.1903 129.296 11.4631C129.794 11.7315 130.182 12.1406 130.459 12.6903C130.736 13.2358 130.875 13.9261 130.875 14.7614V21H129.366V14.8636C129.366 14.0923 129.166 13.4915 128.765 13.0611C128.365 12.6264 127.815 12.4091 127.116 12.4091C126.635 12.4091 126.204 12.5135 125.825 12.7223C125.45 12.9311 125.154 13.2358 124.936 13.6364C124.719 14.0369 124.61 14.5227 124.61 15.0938ZM133.991 21V11.1818H135.5V21H133.991ZM134.758 9.54545C134.464 9.54545 134.211 9.44531 133.998 9.24503C133.789 9.04474 133.684 8.80398 133.684 8.52273C133.684 8.24148 133.789 8.00071 133.998 7.80043C134.211 7.60014 134.464 7.5 134.758 7.5C135.052 7.5 135.304 7.60014 135.512 7.80043C135.726 8.00071 135.832 8.24148 135.832 8.52273C135.832 8.80398 135.726 9.04474 135.512 9.24503C135.304 9.44531 135.052 9.54545 134.758 9.54545ZM141.512 21.2301C140.89 21.2301 140.325 21.1129 139.818 20.8786C139.311 20.6399 138.908 20.2969 138.61 19.8494C138.312 19.3977 138.162 18.8523 138.162 18.2131C138.162 17.6506 138.273 17.1946 138.495 16.8452C138.716 16.4915 139.013 16.2145 139.383 16.0142C139.754 15.8139 140.163 15.6648 140.611 15.5668C141.062 15.4645 141.516 15.3835 141.972 15.3239C142.569 15.2472 143.052 15.1896 143.423 15.1513C143.798 15.1087 144.071 15.0384 144.241 14.9403C144.416 14.8423 144.503 14.6719 144.503 14.429V14.3778C144.503 13.7472 144.331 13.2571 143.986 12.9077C143.645 12.5582 143.127 12.3835 142.432 12.3835C141.712 12.3835 141.147 12.5412 140.738 12.8565C140.329 13.1719 140.042 13.5085 139.875 13.8665L138.444 13.3551C138.699 12.7585 139.04 12.294 139.466 11.9616C139.897 11.625 140.366 11.3906 140.873 11.2585C141.384 11.1222 141.887 11.054 142.381 11.054C142.696 11.054 143.059 11.0923 143.468 11.169C143.881 11.2415 144.28 11.3928 144.663 11.6229C145.051 11.853 145.373 12.2003 145.628 12.6648C145.884 13.1293 146.012 13.7514 146.012 14.5312V21H144.503V19.6705H144.427C144.324 19.8835 144.154 20.1115 143.915 20.3544C143.677 20.5973 143.359 20.804 142.963 20.9744C142.567 21.1449 142.083 21.2301 141.512 21.2301ZM141.742 19.875C142.339 19.875 142.841 19.7578 143.25 19.5234C143.664 19.2891 143.975 18.9865 144.184 18.6158C144.397 18.245 144.503 17.8551 144.503 17.446V16.0653C144.439 16.142 144.299 16.2124 144.081 16.2763C143.868 16.3359 143.621 16.3892 143.34 16.4361C143.063 16.4787 142.792 16.517 142.528 16.5511C142.268 16.581 142.057 16.6065 141.895 16.6278C141.503 16.679 141.137 16.7621 140.796 16.8771C140.459 16.9879 140.187 17.1562 139.978 17.3821C139.773 17.6037 139.671 17.9062 139.671 18.2898C139.671 18.8139 139.865 19.2102 140.253 19.4787C140.645 19.7429 141.141 19.875 141.742 19.875ZM150.634 7.90909V21H149.125V7.90909H150.634Z" fill="#1C2752"/>
</svg>
