<svg width="4" height="28" viewBox="0 0 213 28" fill="none" xmlns="http://www.w3.org/2000/svg">
<path d="M0 0H213V27H0V0Z" fill="white"/>
<path d="M38 11.1683V23.1649C38 23.5074 37.945 23.8465 37.8382 24.1629C37.7315 24.4793 37.5749 24.7668 37.3776 25.009C37.1803 25.2511 36.946 25.4433 36.6882 25.5742C36.4304 25.7053 36.1541 25.7728 35.875 25.7728H23.125C22.5614 25.7728 22.0209 25.498 21.6224 25.009C21.2239 24.5199 21 23.8566 21 23.1649V7.51713C21 6.82546 21.2239 6.16211 21.6224 5.67303C22.0209 5.18394 22.5614 4.90918 23.125 4.90918H32.0224" stroke="#FFB342" stroke-width="2" stroke-linecap="round" stroke-linejoin="round"/>
<path d="M41.7779 0.352351C41.698 0.244599 41.6011 0.157848 41.4931 0.0973406C41.3851 0.0368333 41.2682 0.0038261 41.1496 0.000313331C41.0309 -0.00319943 40.9128 0.0228553 40.8026 0.0769031C40.6923 0.130951 40.5921 0.21187 40.5081 0.31477L39.8316 1.1409C39.7496 1.24158 39.7036 1.37808 39.7036 1.52042C39.7036 1.66275 39.7496 1.79926 39.8316 1.89993L40.4518 2.65962C40.4924 2.70974 40.5407 2.74951 40.5939 2.77666C40.6472 2.80379 40.7042 2.81776 40.7618 2.81776C40.8195 2.81776 40.8765 2.80379 40.9297 2.77666C40.9829 2.74951 41.0313 2.70974 41.0719 2.65962L41.7314 1.85429C42.065 1.44559 42.0962 0.779847 41.7779 0.352351ZM38.4639 2.81868L28.5918 14.9121C28.5319 14.9852 28.4884 15.0761 28.4655 15.1758L28.0088 16.8448C27.9979 16.8901 27.9971 16.9382 28.0066 16.984C28.0161 17.0298 28.0354 17.0716 28.0626 17.105C28.0899 17.1384 28.1239 17.1622 28.1612 17.1737C28.1985 17.1854 28.2377 17.1844 28.2746 17.171L29.6336 16.6106C29.7149 16.5824 29.7889 16.529 29.8485 16.4556L39.7031 4.3394C39.7943 4.22632 39.8454 4.07367 39.8454 3.9146C39.8454 3.75552 39.7943 3.60287 39.7031 3.48979L39.159 2.81868C39.0667 2.70577 38.9417 2.64237 38.8114 2.64237C38.6811 2.64237 38.5562 2.70577 38.4639 2.81868Z" fill="#FFB342"/>
<path d="M55.4635 20H53.8016L58.6084 6.90909H60.2447L65.0516 20H63.3896L59.4777 8.98011H59.3754L55.4635 20ZM56.0771 14.8864H62.776V16.2926H56.0771V14.8864ZM67.2461 20V10.1818H68.7035V11.6648H68.8057C68.9847 11.179 69.3086 10.7848 69.7773 10.4822C70.2461 10.1797 70.7745 10.0284 71.3626 10.0284C71.4733 10.0284 71.6118 10.0305 71.778 10.0348C71.9442 10.0391 72.0699 10.0455 72.1552 10.054V11.5881C72.104 11.5753 71.9868 11.5561 71.8036 11.5305C71.6246 11.5007 71.435 11.4858 71.2347 11.4858C70.7574 11.4858 70.3313 11.5859 69.9563 11.7862C69.5856 11.9822 69.2915 12.255 69.0742 12.6044C68.8611 12.9496 68.7546 13.3437 68.7546 13.7869V20H67.2461ZM78.121 20.2045C77.175 20.2045 76.3589 19.9957 75.6728 19.5781C74.991 19.1562 74.4647 18.5682 74.094 17.8139C73.7275 17.0554 73.5443 16.1733 73.5443 15.1676C73.5443 14.1619 73.7275 13.2756 74.094 12.5085C74.4647 11.7372 74.9804 11.1364 75.6409 10.706C76.3056 10.2713 77.0812 10.054 77.9676 10.054C78.4789 10.054 78.9839 10.1392 79.4825 10.3097C79.9811 10.4801 80.4349 10.7571 80.844 11.1406C81.2531 11.5199 81.5791 12.0227 81.822 12.6491C82.0649 13.2756 82.1863 14.0469 82.1863 14.9631V15.6023H74.6181V14.2983H80.6522C80.6522 13.7443 80.5414 13.25 80.3199 12.8153C80.1025 12.3807 79.7914 12.0376 79.3866 11.7862C78.986 11.5348 78.513 11.4091 77.9676 11.4091C77.3667 11.4091 76.8468 11.5582 76.4079 11.8565C75.9733 12.1506 75.6387 12.5341 75.4044 13.0071C75.17 13.4801 75.0528 13.9872 75.0528 14.5284V15.3977C75.0528 16.1392 75.1806 16.7678 75.4363 17.2834C75.6963 17.7947 76.0564 18.1847 76.5166 18.4531C76.9768 18.7173 77.5116 18.8494 78.121 18.8494C78.5173 18.8494 78.8753 18.794 79.1949 18.6832C79.5187 18.5682 79.7978 18.3977 80.0322 18.1719C80.2666 17.9418 80.4477 17.6562 80.5755 17.3153L82.0329 17.7244C81.8795 18.2188 81.6217 18.6534 81.2595 19.0284C80.8973 19.3991 80.4498 19.6889 79.9172 19.8977C79.3845 20.1023 78.7858 20.2045 78.121 20.2045ZM87.7303 20.2301C87.1081 20.2301 86.5435 20.1129 86.0364 19.8786C85.5293 19.6399 85.1266 19.2969 84.8283 18.8494C84.53 18.3977 84.3808 17.8523 84.3808 17.2131C84.3808 16.6506 84.4916 16.1946 84.7132 15.8452C84.9348 15.4915 85.231 15.2145 85.6017 15.0142C85.9725 14.8139 86.3816 14.6648 86.829 14.5668C87.2807 14.4645 87.7345 14.3835 88.1905 14.3239C88.7871 14.2472 89.2708 14.1896 89.6415 14.1513C90.0165 14.1087 90.2892 14.0384 90.4597 13.9403C90.6344 13.8423 90.7218 13.6719 90.7218 13.429V13.3778C90.7218 12.7472 90.5492 12.2571 90.204 11.9077C89.8631 11.5582 89.3453 11.3835 88.6507 11.3835C87.9306 11.3835 87.3659 11.5412 86.9568 11.8565C86.5478 12.1719 86.2601 12.5085 86.0939 12.8665L84.6621 12.3551C84.9178 11.7585 85.2587 11.294 85.6848 10.9616C86.1152 10.625 86.584 10.3906 87.0911 10.2585C87.6024 10.1222 88.1053 10.054 88.5996 10.054C88.9149 10.054 89.2772 10.0923 89.6862 10.169C90.0996 10.2415 90.498 10.3928 90.8816 10.6229C91.2693 10.853 91.5911 11.2003 91.8468 11.6648C92.1024 12.1293 92.2303 12.7514 92.2303 13.5312V20H90.7218V18.6705H90.6451C90.5428 18.8835 90.3723 19.1115 90.1337 19.3544C89.8951 19.5973 89.5776 19.804 89.1813 19.9744C88.785 20.1449 88.3013 20.2301 87.7303 20.2301ZM87.9604 18.875C88.557 18.875 89.0598 18.7578 89.4689 18.5234C89.8823 18.2891 90.1933 17.9865 90.4022 17.6158C90.6152 17.245 90.7218 16.8551 90.7218 16.446V15.0653C90.6578 15.142 90.5172 15.2124 90.2999 15.2763C90.0868 15.3359 89.8397 15.3892 89.5584 15.4361C89.2814 15.4787 89.0108 15.517 88.7466 15.5511C88.4867 15.581 88.2757 15.6065 88.1138 15.6278C87.7218 15.679 87.3553 15.7621 87.0144 15.8771C86.6777 15.9879 86.405 16.1562 86.1962 16.3821C85.9916 16.6037 85.8894 16.9062 85.8894 17.2898C85.8894 17.8139 86.0833 18.2102 86.471 18.4787C86.8631 18.7429 87.3595 18.875 87.9604 18.875ZM112.016 13.4545C112.016 14.8352 111.767 16.0284 111.268 17.0341C110.77 18.0398 110.086 18.8153 109.216 19.3608C108.347 19.9062 107.354 20.179 106.238 20.179C105.121 20.179 104.128 19.9062 103.259 19.3608C102.39 18.8153 101.706 18.0398 101.207 17.0341C100.709 16.0284 100.459 14.8352 100.459 13.4545C100.459 12.0739 100.709 10.8807 101.207 9.875C101.706 8.86932 102.39 8.09375 103.259 7.5483C104.128 7.00284 105.121 6.73011 106.238 6.73011C107.354 6.73011 108.347 7.00284 109.216 7.5483C110.086 8.09375 110.77 8.86932 111.268 9.875C111.767 10.8807 112.016 12.0739 112.016 13.4545ZM110.482 13.4545C110.482 12.321 110.292 11.3643 109.913 10.5845C109.538 9.80469 109.029 9.21449 108.385 8.81392C107.746 8.41335 107.03 8.21307 106.238 8.21307C105.445 8.21307 104.727 8.41335 104.084 8.81392C103.444 9.21449 102.935 9.80469 102.556 10.5845C102.181 11.3643 101.993 12.321 101.993 13.4545C101.993 14.5881 102.181 15.5447 102.556 16.3246C102.935 17.1044 103.444 17.6946 104.084 18.0952C104.727 18.4957 105.445 18.696 106.238 18.696C107.03 18.696 107.746 18.4957 108.385 18.0952C109.029 17.6946 109.538 17.1044 109.913 16.3246C110.292 15.5447 110.482 14.5881 110.482 13.4545ZM119.209 10.1818V11.4602H113.917V10.1818H119.209ZM115.502 20V8.8267C115.502 8.2642 115.634 7.79545 115.898 7.42045C116.162 7.04545 116.505 6.7642 116.927 6.5767C117.349 6.3892 117.794 6.29545 118.263 6.29545C118.634 6.29545 118.937 6.32528 119.171 6.38494C119.405 6.4446 119.58 6.5 119.695 6.55114L119.26 7.85511C119.184 7.82954 119.077 7.79758 118.941 7.75923C118.809 7.72088 118.634 7.7017 118.417 7.7017C117.918 7.7017 117.558 7.82741 117.336 8.07884C117.119 8.33026 117.01 8.69886 117.01 9.18466V20H115.502ZM134.47 10.1818C134.393 9.53409 134.082 9.03125 133.536 8.6733C132.991 8.31534 132.322 8.13636 131.529 8.13636C130.95 8.13636 130.443 8.23011 130.008 8.41761C129.578 8.60511 129.241 8.86293 128.998 9.19105C128.759 9.51918 128.64 9.89204 128.64 10.3097C128.64 10.6591 128.723 10.9595 128.889 11.2109C129.06 11.4581 129.277 11.6648 129.541 11.831C129.805 11.9929 130.082 12.1271 130.372 12.2337C130.662 12.3359 130.928 12.419 131.171 12.483L132.501 12.8409C132.842 12.9304 133.221 13.054 133.639 13.2116C134.06 13.3693 134.463 13.5845 134.847 13.8572C135.234 14.1257 135.554 14.4709 135.805 14.8928C136.057 15.3146 136.183 15.8324 136.183 16.446C136.183 17.1534 135.997 17.7926 135.627 18.3636C135.26 18.9347 134.723 19.3885 134.016 19.7251C133.313 20.0618 132.458 20.2301 131.453 20.2301C130.515 20.2301 129.703 20.0788 129.017 19.7763C128.335 19.4737 127.798 19.0518 127.406 18.5107C127.019 17.9695 126.799 17.3409 126.748 16.625H128.384C128.427 17.1193 128.593 17.5284 128.883 17.8523C129.177 18.1719 129.548 18.4105 129.995 18.5682C130.447 18.7216 130.933 18.7983 131.453 18.7983C132.058 18.7983 132.601 18.7003 133.082 18.5043C133.564 18.304 133.945 18.027 134.227 17.6733C134.508 17.3153 134.649 16.8977 134.649 16.4205C134.649 15.9858 134.527 15.6321 134.284 15.3594C134.041 15.0866 133.722 14.8651 133.325 14.6946C132.929 14.5241 132.501 14.375 132.041 14.2472L130.43 13.7869C129.407 13.4929 128.597 13.0732 128.001 12.5277C127.404 11.9822 127.106 11.2685 127.106 10.3864C127.106 9.65341 127.304 9.0142 127.7 8.46875C128.101 7.91903 128.638 7.4929 129.311 7.19034C129.989 6.88352 130.745 6.73011 131.58 6.73011C132.424 6.73011 133.174 6.88139 133.83 7.18395C134.487 7.48224 135.006 7.89133 135.39 8.41122C135.778 8.93111 135.982 9.52131 136.004 10.1818H134.47ZM143.061 20.2045C142.115 20.2045 141.299 19.9957 140.613 19.5781C139.931 19.1562 139.405 18.5682 139.034 17.8139C138.667 17.0554 138.484 16.1733 138.484 15.1676C138.484 14.1619 138.667 13.2756 139.034 12.5085C139.405 11.7372 139.92 11.1364 140.581 10.706C141.246 10.2713 142.021 10.054 142.908 10.054C143.419 10.054 143.924 10.1392 144.422 10.3097C144.921 10.4801 145.375 10.7571 145.784 11.1406C146.193 11.5199 146.519 12.0227 146.762 12.6491C147.005 13.2756 147.126 14.0469 147.126 14.9631V15.6023H139.558V14.2983H145.592C145.592 13.7443 145.481 13.25 145.26 12.8153C145.042 12.3807 144.731 12.0376 144.327 11.7862C143.926 11.5348 143.453 11.4091 142.908 11.4091C142.307 11.4091 141.787 11.5582 141.348 11.8565C140.913 12.1506 140.579 12.5341 140.344 13.0071C140.11 13.4801 139.993 13.9872 139.993 14.5284V15.3977C139.993 16.1392 140.121 16.7678 140.376 17.2834C140.636 17.7947 140.996 18.1847 141.457 18.4531C141.917 18.7173 142.452 18.8494 143.061 18.8494C143.457 18.8494 143.815 18.794 144.135 18.6832C144.459 18.5682 144.738 18.3977 144.972 18.1719C145.207 17.9418 145.388 17.6562 145.515 17.3153L146.973 17.7244C146.819 18.2188 146.562 18.6534 146.199 19.0284C145.837 19.3991 145.39 19.6889 144.857 19.8977C144.324 20.1023 143.726 20.2045 143.061 20.2045ZM149.781 20V10.1818H151.238V11.6648H151.341C151.52 11.179 151.843 10.7848 152.312 10.4822C152.781 10.1797 153.309 10.0284 153.897 10.0284C154.008 10.0284 154.147 10.0305 154.313 10.0348C154.479 10.0391 154.605 10.0455 154.69 10.054V11.5881C154.639 11.5753 154.522 11.5561 154.339 11.5305C154.16 11.5007 153.97 11.4858 153.77 11.4858C153.292 11.4858 152.866 11.5859 152.491 11.7862C152.12 11.9822 151.826 12.255 151.609 12.6044C151.396 12.9496 151.29 13.3437 151.29 13.7869V20H149.781ZM165.166 10.1818L161.535 20H160.001L156.37 10.1818H158.006L160.717 18.0057H160.819L163.529 10.1818H165.166ZM167.517 20V10.1818H169.025V20H167.517ZM168.284 8.54545C167.99 8.54545 167.736 8.44531 167.523 8.24503C167.314 8.04474 167.21 7.80398 167.21 7.52273C167.21 7.24148 167.314 7.00071 167.523 6.80043C167.736 6.60014 167.99 6.5 168.284 6.5C168.578 6.5 168.829 6.60014 169.038 6.80043C169.251 7.00071 169.358 7.24148 169.358 7.52273C169.358 7.80398 169.251 8.04474 169.038 8.24503C168.829 8.44531 168.578 8.54545 168.284 8.54545ZM176.137 20.2045C175.216 20.2045 174.424 19.9872 173.759 19.5526C173.094 19.1179 172.583 18.5192 172.225 17.7564C171.867 16.9936 171.688 16.1222 171.688 15.142C171.688 14.1449 171.871 13.2649 172.238 12.5021C172.608 11.7351 173.124 11.1364 173.784 10.706C174.449 10.2713 175.225 10.054 176.111 10.054C176.802 10.054 177.424 10.1818 177.978 10.4375C178.532 10.6932 178.985 11.0511 179.339 11.5114C179.693 11.9716 179.912 12.5085 179.998 13.1222H178.489C178.374 12.6747 178.118 12.2784 177.722 11.9332C177.33 11.5838 176.802 11.4091 176.137 11.4091C175.549 11.4091 175.033 11.5625 174.59 11.8693C174.151 12.1719 173.808 12.6001 173.561 13.1541C173.318 13.7038 173.196 14.3494 173.196 15.0909C173.196 15.8494 173.316 16.5099 173.554 17.0724C173.797 17.6349 174.138 18.0717 174.577 18.3828C175.02 18.6939 175.54 18.8494 176.137 18.8494C176.529 18.8494 176.885 18.7812 177.204 18.6449C177.524 18.5085 177.794 18.3125 178.016 18.0568C178.238 17.8011 178.395 17.4943 178.489 17.1364H179.998C179.912 17.7159 179.701 18.2379 179.365 18.7024C179.032 19.1626 178.591 19.5291 178.042 19.8018C177.496 20.0703 176.861 20.2045 176.137 20.2045ZM186.679 20.2045C185.733 20.2045 184.917 19.9957 184.231 19.5781C183.549 19.1562 183.023 18.5682 182.652 17.8139C182.286 17.0554 182.103 16.1733 182.103 15.1676C182.103 14.1619 182.286 13.2756 182.652 12.5085C183.023 11.7372 183.539 11.1364 184.199 10.706C184.864 10.2713 185.64 10.054 186.526 10.054C187.037 10.054 187.542 10.1392 188.041 10.3097C188.539 10.4801 188.993 10.7571 189.402 11.1406C189.811 11.5199 190.137 12.0227 190.38 12.6491C190.623 13.2756 190.745 14.0469 190.745 14.9631V15.6023H183.176V14.2983H189.211C189.211 13.7443 189.1 13.25 188.878 12.8153C188.661 12.3807 188.35 12.0376 187.945 11.7862C187.544 11.5348 187.071 11.4091 186.526 11.4091C185.925 11.4091 185.405 11.5582 184.966 11.8565C184.532 12.1506 184.197 12.5341 183.963 13.0071C183.728 13.4801 183.611 13.9872 183.611 14.5284V15.3977C183.611 16.1392 183.739 16.7678 183.995 17.2834C184.255 17.7947 184.615 18.1847 185.075 18.4531C185.535 18.7173 186.07 18.8494 186.679 18.8494C187.076 18.8494 187.434 18.794 187.753 18.6832C188.077 18.5682 188.356 18.3977 188.59 18.1719C188.825 17.9418 189.006 17.6562 189.134 17.3153L190.591 17.7244C190.438 18.2188 190.18 18.6534 189.818 19.0284C189.456 19.3991 189.008 19.6889 188.475 19.8977C187.943 20.1023 187.344 20.2045 186.679 20.2045Z" fill="#1C2752"/>
</svg>
