<svg width="213" height="28" viewBox="0 0 213 28" fill="none" xmlns="http://www.w3.org/2000/svg">
<path d="M0 0H213V27H0V0Z" fill="#F4F4F4"/>
<path d="M38 11.1683V23.1649C38 23.5074 37.945 23.8465 37.8382 24.1629C37.7315 24.4793 37.5749 24.7668 37.3776 25.009C37.1803 25.2511 36.946 25.4433 36.6882 25.5742C36.4304 25.7053 36.1541 25.7728 35.875 25.7728H23.125C22.5614 25.7728 22.0209 25.498 21.6224 25.009C21.2239 24.5199 21 23.8566 21 23.1649V7.51713C21 6.82546 21.2239 6.16211 21.6224 5.67303C22.0209 5.18394 22.5614 4.90918 23.125 4.90918H32.0224" stroke="#FFB342" stroke-width="2" stroke-linecap="round" stroke-linejoin="round"/>
<path d="M41.7779 0.352351C41.698 0.244599 41.6011 0.157848 41.4931 0.0973406C41.3851 0.0368333 41.2682 0.0038261 41.1496 0.00031333C41.0309 -0.00319943 40.9128 0.0228553 40.8026 0.0769031C40.6923 0.130951 40.5921 0.21187 40.5081 0.31477L39.8316 1.1409C39.7496 1.24158 39.7036 1.37808 39.7036 1.52042C39.7036 1.66275 39.7496 1.79926 39.8316 1.89993L40.4518 2.65962C40.4924 2.70974 40.5407 2.74951 40.5939 2.77666C40.6472 2.80379 40.7042 2.81776 40.7618 2.81776C40.8195 2.81776 40.8765 2.80379 40.9297 2.77666C40.9829 2.74951 41.0313 2.70974 41.0719 2.65962L41.7314 1.85429C42.065 1.44559 42.0962 0.779847 41.7779 0.352351ZM38.4639 2.81868L28.5918 14.9121C28.5319 14.9852 28.4884 15.0761 28.4655 15.1758L28.0088 16.8448C27.9979 16.8901 27.9971 16.9382 28.0066 16.984C28.0161 17.0298 28.0354 17.0716 28.0626 17.105C28.0899 17.1384 28.1239 17.1622 28.1612 17.1737C28.1985 17.1854 28.2377 17.1844 28.2746 17.171L29.6336 16.6106C29.7149 16.5824 29.7889 16.529 29.8485 16.4556L39.7031 4.3394C39.7943 4.22632 39.8454 4.07367 39.8454 3.9146C39.8454 3.75552 39.7943 3.60287 39.7031 3.48979L39.159 2.81868C39.0667 2.70577 38.9417 2.64237 38.8114 2.64237C38.6811 2.64237 38.5562 2.70577 38.4639 2.81868Z" fill="#FFB342"/>
<path d="M55.9631 20L52.3835 6.90909H53.9943L56.7301 17.571H56.858L59.6449 6.90909H61.4347L64.2216 17.571H64.3494L67.0852 6.90909H68.696L65.1165 20H63.4801L60.5909 9.56818H60.4886L57.5994 20H55.9631ZM72.3351 14.0938V20H70.8266V6.90909H72.3351V11.7159H72.463C72.6931 11.2088 73.0383 10.8061 73.4985 10.5078C73.963 10.2053 74.5809 10.054 75.3522 10.054C76.0212 10.054 76.6072 10.1882 77.11 10.4567C77.6128 10.7209 78.0028 11.1278 78.2797 11.6776C78.561 12.223 78.7016 12.9176 78.7016 13.7614V20H77.1931V13.8636C77.1931 13.0838 76.9907 12.4808 76.5859 12.0547C76.1853 11.6243 75.6292 11.4091 74.9175 11.4091C74.4232 11.4091 73.98 11.5135 73.588 11.7223C73.2002 11.9311 72.8934 12.2358 72.6675 12.6364C72.4459 13.0369 72.3351 13.5227 72.3351 14.0938ZM82.4414 23.6818C82.1857 23.6818 81.9577 23.6605 81.7575 23.6179C81.5572 23.5795 81.4187 23.5412 81.342 23.5028L81.7255 22.1733C82.092 22.267 82.4158 22.3011 82.6971 22.2756C82.9783 22.25 83.2276 22.1243 83.445 21.8984C83.6666 21.6768 83.869 21.3168 84.0522 20.8182L84.3335 20.0511L80.7028 10.1818H82.3391L85.0494 18.0057H85.1516L87.8619 10.1818H89.4982L85.3306 21.4318C85.1431 21.9389 84.9109 22.3587 84.6339 22.6911C84.3569 23.0277 84.0352 23.277 83.6687 23.4389C83.3065 23.6009 82.8974 23.6818 82.4414 23.6818ZM108.01 11H106.425C106.332 10.544 106.167 10.1435 105.933 9.7983C105.703 9.45312 105.422 9.16335 105.089 8.92898C104.761 8.69034 104.397 8.51136 103.996 8.39205C103.596 8.27273 103.178 8.21307 102.743 8.21307C101.951 8.21307 101.233 8.41335 100.589 8.81392C99.9501 9.21449 99.4409 9.80469 99.0616 10.5845C98.6866 11.3643 98.4991 12.321 98.4991 13.4545C98.4991 14.5881 98.6866 15.5447 99.0616 16.3246C99.4409 17.1044 99.9501 17.6946 100.589 18.0952C101.233 18.4957 101.951 18.696 102.743 18.696C103.178 18.696 103.596 18.6364 103.996 18.517C104.397 18.3977 104.761 18.2209 105.089 17.9865C105.422 17.7479 105.703 17.456 105.933 17.1108C106.167 16.7614 106.332 16.3608 106.425 15.9091H108.01C107.891 16.5781 107.674 17.1768 107.359 17.7053C107.043 18.2337 106.651 18.6832 106.182 19.054C105.714 19.4205 105.187 19.6996 104.604 19.8913C104.024 20.0831 103.404 20.179 102.743 20.179C101.627 20.179 100.634 19.9062 99.7648 19.3608C98.8954 18.8153 98.2115 18.0398 97.7129 17.0341C97.2143 16.0284 96.965 14.8352 96.965 13.4545C96.965 12.0739 97.2143 10.8807 97.7129 9.875C98.2115 8.86932 98.8954 8.09375 99.7648 7.5483C100.634 7.00284 101.627 6.73011 102.743 6.73011C103.404 6.73011 104.024 6.82599 104.604 7.01776C105.187 7.20952 105.714 7.49077 106.182 7.86151C106.651 8.22798 107.043 8.67543 107.359 9.20384C107.674 9.72798 107.891 10.3267 108.01 11ZM112.236 14.0938V20H110.728V6.90909H112.236V11.7159H112.364C112.594 11.2088 112.939 10.8061 113.399 10.5078C113.864 10.2053 114.482 10.054 115.253 10.054C115.922 10.054 116.508 10.1882 117.011 10.4567C117.514 10.7209 117.904 11.1278 118.181 11.6776C118.462 12.223 118.603 12.9176 118.603 13.7614V20H117.094V13.8636C117.094 13.0838 116.892 12.4808 116.487 12.0547C116.086 11.6243 115.53 11.4091 114.818 11.4091C114.324 11.4091 113.881 11.5135 113.489 11.7223C113.101 11.9311 112.794 12.2358 112.568 12.6364C112.347 13.0369 112.236 13.5227 112.236 14.0938ZM125.711 20.2045C124.825 20.2045 124.047 19.9936 123.378 19.5717C122.713 19.1499 122.193 18.5597 121.818 17.8011C121.447 17.0426 121.262 16.1562 121.262 15.142C121.262 14.1193 121.447 13.2266 121.818 12.4638C122.193 11.701 122.713 11.1087 123.378 10.6868C124.047 10.2649 124.825 10.054 125.711 10.054C126.597 10.054 127.373 10.2649 128.038 10.6868C128.707 11.1087 129.227 11.701 129.597 12.4638C129.972 13.2266 130.16 14.1193 130.16 15.142C130.16 16.1562 129.972 17.0426 129.597 17.8011C129.227 18.5597 128.707 19.1499 128.038 19.5717C127.373 19.9936 126.597 20.2045 125.711 20.2045ZM125.711 18.8494C126.384 18.8494 126.938 18.6768 127.373 18.3317C127.808 17.9865 128.129 17.5327 128.338 16.9702C128.547 16.4077 128.651 15.7983 128.651 15.142C128.651 14.4858 128.547 13.8743 128.338 13.3075C128.129 12.7408 127.808 12.2827 127.373 11.9332C126.938 11.5838 126.384 11.4091 125.711 11.4091C125.038 11.4091 124.484 11.5838 124.049 11.9332C123.614 12.2827 123.293 12.7408 123.084 13.3075C122.875 13.8743 122.771 14.4858 122.771 15.142C122.771 15.7983 122.875 16.4077 123.084 16.9702C123.293 17.5327 123.614 17.9865 124.049 18.3317C124.484 18.6768 125.038 18.8494 125.711 18.8494ZM136.811 20.2045C135.925 20.2045 135.147 19.9936 134.478 19.5717C133.813 19.1499 133.293 18.5597 132.918 17.8011C132.548 17.0426 132.362 16.1562 132.362 15.142C132.362 14.1193 132.548 13.2266 132.918 12.4638C133.293 11.701 133.813 11.1087 134.478 10.6868C135.147 10.2649 135.925 10.054 136.811 10.054C137.698 10.054 138.473 10.2649 139.138 10.6868C139.807 11.1087 140.327 11.701 140.698 12.4638C141.073 13.2266 141.26 14.1193 141.26 15.142C141.26 16.1562 141.073 17.0426 140.698 17.8011C140.327 18.5597 139.807 19.1499 139.138 19.5717C138.473 19.9936 137.698 20.2045 136.811 20.2045ZM136.811 18.8494C137.484 18.8494 138.038 18.6768 138.473 18.3317C138.908 17.9865 139.23 17.5327 139.438 16.9702C139.647 16.4077 139.752 15.7983 139.752 15.142C139.752 14.4858 139.647 13.8743 139.438 13.3075C139.23 12.7408 138.908 12.2827 138.473 11.9332C138.038 11.5838 137.484 11.4091 136.811 11.4091C136.138 11.4091 135.584 11.5838 135.149 11.9332C134.715 12.2827 134.393 12.7408 134.184 13.3075C133.975 13.8743 133.871 14.4858 133.871 15.142C133.871 15.7983 133.975 16.4077 134.184 16.9702C134.393 17.5327 134.715 17.9865 135.149 18.3317C135.584 18.6768 136.138 18.8494 136.811 18.8494ZM150.877 12.3807L149.522 12.7642C149.437 12.5384 149.311 12.3189 149.145 12.1058C148.983 11.8885 148.762 11.7095 148.48 11.5689C148.199 11.4283 147.839 11.358 147.4 11.358C146.799 11.358 146.298 11.4964 145.898 11.7734C145.502 12.0462 145.303 12.3935 145.303 12.8153C145.303 13.1903 145.44 13.4865 145.713 13.7038C145.985 13.9212 146.411 14.1023 146.991 14.2472L148.448 14.6051C149.326 14.8182 149.98 15.1442 150.411 15.5831C150.841 16.0178 151.056 16.5781 151.056 17.2642C151.056 17.8267 150.894 18.3295 150.571 18.7727C150.251 19.2159 149.803 19.5653 149.228 19.821C148.653 20.0767 147.984 20.2045 147.221 20.2045C146.22 20.2045 145.391 19.9872 144.735 19.5526C144.078 19.1179 143.663 18.483 143.488 17.6477L144.92 17.2898C145.056 17.8182 145.314 18.2145 145.693 18.4787C146.077 18.7429 146.578 18.875 147.196 18.875C147.899 18.875 148.457 18.7259 148.87 18.4276C149.288 18.125 149.497 17.7628 149.497 17.3409C149.497 17 149.377 16.7145 149.139 16.4844C148.9 16.25 148.534 16.0753 148.039 15.9602L146.403 15.5767C145.504 15.3636 144.843 15.0334 144.421 14.5859C144.004 14.1342 143.795 13.5696 143.795 12.892C143.795 12.3381 143.95 11.848 144.262 11.4219C144.577 10.9957 145.005 10.6612 145.546 10.4183C146.092 10.1754 146.71 10.054 147.4 10.054C148.372 10.054 149.134 10.267 149.688 10.6932C150.247 11.1193 150.643 11.6818 150.877 12.3807ZM157.804 20.2045C156.858 20.2045 156.041 19.9957 155.355 19.5781C154.674 19.1562 154.147 18.5682 153.777 17.8139C153.41 17.0554 153.227 16.1733 153.227 15.1676C153.227 14.1619 153.41 13.2756 153.777 12.5085C154.147 11.7372 154.663 11.1364 155.323 10.706C155.988 10.2713 156.764 10.054 157.65 10.054C158.162 10.054 158.666 10.1392 159.165 10.3097C159.664 10.4801 160.117 10.7571 160.527 11.1406C160.936 11.5199 161.262 12.0227 161.505 12.6491C161.747 13.2756 161.869 14.0469 161.869 14.9631V15.6023H154.301V14.2983H160.335C160.335 13.7443 160.224 13.25 160.002 12.8153C159.785 12.3807 159.474 12.0376 159.069 11.7862C158.669 11.5348 158.196 11.4091 157.65 11.4091C157.049 11.4091 156.529 11.5582 156.09 11.8565C155.656 12.1506 155.321 12.5341 155.087 13.0071C154.853 13.4801 154.735 13.9872 154.735 14.5284V15.3977C154.735 16.1392 154.863 16.7678 155.119 17.2834C155.379 17.7947 155.739 18.1847 156.199 18.4531C156.659 18.7173 157.194 18.8494 157.804 18.8494C158.2 18.8494 158.558 18.794 158.877 18.6832C159.201 18.5682 159.48 18.3977 159.715 18.1719C159.949 17.9418 160.13 17.6562 160.258 17.3153L161.715 17.7244C161.562 18.2188 161.304 18.6534 160.942 19.0284C160.58 19.3991 160.132 19.6889 159.6 19.8977C159.067 20.1023 158.468 20.2045 157.804 20.2045ZM178.742 6.90909H180.327V15.5767C180.327 16.4716 180.116 17.2706 179.694 17.9737C179.276 18.6726 178.686 19.2244 177.923 19.6293C177.161 20.0298 176.266 20.2301 175.239 20.2301C174.212 20.2301 173.317 20.0298 172.554 19.6293C171.791 19.2244 171.199 18.6726 170.777 17.9737C170.36 17.2706 170.151 16.4716 170.151 15.5767V6.90909H171.736V15.4489C171.736 16.0881 171.877 16.657 172.158 17.1555C172.439 17.6499 172.84 18.0398 173.36 18.3253C173.884 18.6065 174.51 18.7472 175.239 18.7472C175.967 18.7472 176.594 18.6065 177.118 18.3253C177.642 18.0398 178.043 17.6499 178.32 17.1555C178.601 16.657 178.742 16.0881 178.742 15.4489V6.90909ZM190.603 12.3807L189.247 12.7642C189.162 12.5384 189.036 12.3189 188.87 12.1058C188.708 11.8885 188.487 11.7095 188.205 11.5689C187.924 11.4283 187.564 11.358 187.125 11.358C186.524 11.358 186.024 11.4964 185.623 11.7734C185.227 12.0462 185.029 12.3935 185.029 12.8153C185.029 13.1903 185.165 13.4865 185.438 13.7038C185.71 13.9212 186.137 14.1023 186.716 14.2472L188.174 14.6051C189.051 14.8182 189.705 15.1442 190.136 15.5831C190.566 16.0178 190.781 16.5781 190.781 17.2642C190.781 17.8267 190.62 18.3295 190.296 18.7727C189.976 19.2159 189.529 19.5653 188.953 19.821C188.378 20.0767 187.709 20.2045 186.946 20.2045C185.945 20.2045 185.116 19.9872 184.46 19.5526C183.803 19.1179 183.388 18.483 183.213 17.6477L184.645 17.2898C184.781 17.8182 185.039 18.2145 185.419 18.4787C185.802 18.7429 186.303 18.875 186.921 18.875C187.624 18.875 188.182 18.7259 188.595 18.4276C189.013 18.125 189.222 17.7628 189.222 17.3409C189.222 17 189.103 16.7145 188.864 16.4844C188.625 16.25 188.259 16.0753 187.764 15.9602L186.128 15.5767C185.229 15.3636 184.568 15.0334 184.147 14.5859C183.729 14.1342 183.52 13.5696 183.52 12.892C183.52 12.3381 183.676 11.848 183.987 11.4219C184.302 10.9957 184.73 10.6612 185.272 10.4183C185.817 10.1754 186.435 10.054 187.125 10.054C188.097 10.054 188.86 10.267 189.414 10.6932C189.972 11.1193 190.368 11.6818 190.603 12.3807Z" fill="#1C2752"/>
</svg>
