<svg width="198" height="220" viewBox="0 0 198 220" fill="none" xmlns="http://www.w3.org/2000/svg">
<path d="M0 0H198V220H0V0Z" fill="#F4F4F4"/>
<path d="M74.0312 98.72C70.2446 98.72 66.6179 98.1333 63.1513 96.96C59.6846 95.7867 56.7779 94.1067 54.4312 91.92L56.9112 86.8C59.5246 88.9333 62.2179 90.48 64.9913 91.44C67.7646 92.4 70.7513 92.88 73.9513 92.88C78.1646 92.88 81.3646 92 83.5513 90.24C85.7379 88.4267 86.8313 85.7867 86.8313 82.32C86.8313 79.0133 85.7113 76.5067 83.4713 74.8C81.2313 73.04 77.9513 72.16 73.6313 72.16H65.1512V66.64H73.0713C76.8046 66.64 79.7646 65.68 81.9513 63.76C84.1379 61.84 85.2313 59.2267 85.2313 55.92C85.2313 52.9333 84.2179 50.6667 82.1913 49.12C80.2179 47.52 77.3646 46.72 73.6313 46.72C67.5512 46.72 62.2979 48.88 57.8713 53.2L55.3912 48C57.5779 45.76 60.3246 44.0267 63.6313 42.8C66.9379 41.52 70.4046 40.88 74.0312 40.88C79.5779 40.88 83.9246 42.16 87.0713 44.72C90.2179 47.28 91.7913 50.8267 91.7913 55.36C91.7913 58.8267 90.8046 61.8133 88.8313 64.32C86.8579 66.7733 84.1913 68.4533 80.8313 69.36V68.48C84.8313 69.12 87.9246 70.72 90.1113 73.28C92.2979 75.7867 93.3913 78.96 93.3913 82.8C93.3913 87.7067 91.6579 91.6 88.1913 94.48C84.7779 97.3067 80.0579 98.72 74.0312 98.72ZM123.72 98.72C121.267 98.72 118.867 98.4533 116.52 97.92C114.173 97.3867 111.96 96.6133 109.88 95.6C107.853 94.5867 106.067 93.36 104.52 91.92L107 86.8C109.613 88.88 112.28 90.4267 115 91.44C117.72 92.4 120.627 92.88 123.72 92.88C127.773 92.88 130.947 91.7867 133.24 89.6C135.533 87.4133 136.68 84.5333 136.68 80.96C136.68 77.28 135.587 74.2667 133.4 71.92C131.213 69.5733 128.173 68.4 124.28 68.4C121.507 68.4 119.027 68.96 116.84 70.08C114.653 71.1467 112.76 72.8267 111.16 75.12H106.36V41.6H139.8V47.2H112.76V69.68H111C112.44 67.44 114.413 65.7333 116.92 64.56C119.48 63.3333 122.36 62.72 125.56 62.72C129.187 62.72 132.307 63.4667 134.92 64.96C137.587 66.4533 139.64 68.5333 141.08 71.2C142.52 73.8667 143.24 76.9867 143.24 80.56C143.24 84.1333 142.44 87.3067 140.84 90.08C139.293 92.8 137.053 94.9333 134.12 96.48C131.24 97.9733 127.773 98.72 123.72 98.72Z" fill="#FFB342"/>
<path d="M63.8254 149V142.42L64.1854 143.54L58.3454 134.9H60.2654L64.9054 141.92H64.4854L69.1054 134.9H70.9454L65.1254 143.54L65.4854 142.42V149H63.8254ZM75.5518 149.18C73.9785 149.18 72.7385 148.727 71.8318 147.82C70.9251 146.9 70.4718 145.627 70.4718 144C70.4718 142.947 70.6718 142.033 71.0718 141.26C71.4718 140.473 72.0318 139.867 72.7518 139.44C73.4718 139 74.2985 138.78 75.2318 138.78C76.1518 138.78 76.9251 138.973 77.5518 139.36C78.1785 139.747 78.6585 140.3 78.9918 141.02C79.3251 141.727 79.4918 142.567 79.4918 143.54V144.14H71.7118V143.12H78.4318L78.0918 143.38C78.0918 142.313 77.8518 141.48 77.3718 140.88C76.8918 140.28 76.1785 139.98 75.2318 139.98C74.2318 139.98 73.4518 140.333 72.8918 141.04C72.3318 141.733 72.0518 142.673 72.0518 143.86V144.04C72.0518 145.293 72.3585 146.247 72.9718 146.9C73.5985 147.54 74.4718 147.86 75.5918 147.86C76.1918 147.86 76.7518 147.773 77.2718 147.6C77.8051 147.413 78.3118 147.113 78.7918 146.7L79.3518 147.84C78.9118 148.267 78.3518 148.6 77.6718 148.84C77.0051 149.067 76.2985 149.18 75.5518 149.18ZM86.1507 149.18C85.2574 149.18 84.4774 148.973 83.8107 148.56C83.144 148.133 82.624 147.533 82.2507 146.76C81.8907 145.987 81.7107 145.06 81.7107 143.98C81.7107 142.887 81.8907 141.953 82.2507 141.18C82.624 140.407 83.144 139.813 83.8107 139.4C84.4774 138.987 85.2574 138.78 86.1507 138.78C87.0574 138.78 87.8374 139.013 88.4907 139.48C89.1574 139.933 89.5974 140.553 89.8107 141.34H89.5707L89.7907 138.96H91.3507C91.3107 139.347 91.2707 139.74 91.2307 140.14C91.204 140.527 91.1907 140.907 91.1907 141.28V149H89.5707V146.64H89.7907C89.5774 147.427 89.1374 148.047 88.4707 148.5C87.804 148.953 87.0307 149.18 86.1507 149.18ZM86.4707 147.86C87.4307 147.86 88.1907 147.533 88.7507 146.88C89.3107 146.213 89.5907 145.247 89.5907 143.98C89.5907 142.7 89.3107 141.733 88.7507 141.08C88.1907 140.413 87.4307 140.08 86.4707 140.08C85.524 140.08 84.764 140.413 84.1907 141.08C83.6307 141.733 83.3507 142.7 83.3507 143.98C83.3507 145.247 83.6307 146.213 84.1907 146.88C84.764 147.533 85.524 147.86 86.4707 147.86ZM94.6429 149V141.38C94.6429 140.98 94.6296 140.573 94.6029 140.16C94.5896 139.747 94.5629 139.347 94.5229 138.96H96.0829L96.2829 141.4L96.0029 141.42C96.1362 140.82 96.3696 140.327 96.7029 139.94C97.0362 139.553 97.4296 139.267 97.8829 139.08C98.3362 138.88 98.8096 138.78 99.3029 138.78C99.5029 138.78 99.6762 138.787 99.8229 138.8C99.9829 138.813 100.13 138.847 100.263 138.9L100.243 140.34C100.043 140.273 99.8562 140.233 99.6829 140.22C99.5229 140.193 99.3362 140.18 99.1229 140.18C98.5362 140.18 98.0229 140.32 97.5829 140.6C97.1562 140.88 96.8296 141.24 96.6029 141.68C96.3896 142.12 96.2829 142.587 96.2829 143.08V149H94.6429ZM105.551 149.18C104.751 149.18 104.004 149.073 103.311 148.86C102.618 148.633 102.044 148.32 101.591 147.92L102.151 146.78C102.644 147.167 103.178 147.453 103.751 147.64C104.338 147.827 104.944 147.92 105.571 147.92C106.371 147.92 106.971 147.78 107.371 147.5C107.784 147.207 107.991 146.807 107.991 146.3C107.991 145.913 107.858 145.607 107.591 145.38C107.338 145.14 106.918 144.953 106.331 144.82L104.471 144.44C103.618 144.253 102.978 143.94 102.551 143.5C102.124 143.047 101.911 142.473 101.911 141.78C101.911 141.193 102.064 140.68 102.371 140.24C102.678 139.787 103.124 139.433 103.711 139.18C104.298 138.913 104.984 138.78 105.771 138.78C106.504 138.78 107.178 138.893 107.791 139.12C108.418 139.333 108.938 139.647 109.351 140.06L108.771 141.18C108.371 140.793 107.911 140.507 107.391 140.32C106.884 140.12 106.358 140.02 105.811 140.02C105.024 140.02 104.431 140.18 104.031 140.5C103.644 140.807 103.451 141.213 103.451 141.72C103.451 142.107 103.571 142.427 103.811 142.68C104.064 142.92 104.451 143.1 104.971 143.22L106.831 143.6C107.738 143.8 108.411 144.113 108.851 144.54C109.304 144.953 109.531 145.513 109.531 146.22C109.531 146.82 109.364 147.347 109.031 147.8C108.698 148.24 108.231 148.58 107.631 148.82C107.044 149.06 106.351 149.18 105.551 149.18ZM117.728 141.94C117.728 140.447 117.981 139.167 118.488 138.1C119.008 137.02 119.748 136.187 120.708 135.6C121.681 135.013 122.848 134.72 124.208 134.72C125.528 134.72 126.674 135.013 127.648 135.6C128.621 136.187 129.368 137.02 129.888 138.1C130.421 139.167 130.688 140.44 130.688 141.92C130.688 143.413 130.421 144.7 129.888 145.78C129.354 146.86 128.601 147.7 127.628 148.3C126.668 148.887 125.528 149.18 124.208 149.18C122.848 149.18 121.688 148.887 120.728 148.3C119.768 147.7 119.028 146.86 118.508 145.78C117.988 144.7 117.728 143.42 117.728 141.94ZM119.468 141.94C119.468 143.753 119.868 145.173 120.668 146.2C121.468 147.213 122.648 147.72 124.208 147.72C125.701 147.72 126.861 147.213 127.688 146.2C128.528 145.173 128.948 143.753 128.948 141.94C128.948 140.113 128.534 138.7 127.708 137.7C126.881 136.687 125.714 136.18 124.208 136.18C122.648 136.18 121.468 136.687 120.668 137.7C119.868 138.7 119.468 140.113 119.468 141.94ZM134.397 149V140.22H132.437V138.96H134.837L134.397 139.38V137.7C134.397 136.567 134.683 135.7 135.257 135.1C135.83 134.5 136.65 134.2 137.717 134.2C137.983 134.2 138.257 134.227 138.537 134.28C138.83 134.32 139.07 134.38 139.257 134.46V135.8C139.097 135.733 138.897 135.68 138.657 135.64C138.43 135.587 138.197 135.56 137.957 135.56C137.543 135.56 137.19 135.647 136.897 135.82C136.603 135.98 136.383 136.227 136.237 136.56C136.09 136.893 136.017 137.32 136.017 137.84V139.3L135.757 138.96H138.817V140.22H136.017V149H134.397ZM48.8666 175V160.9H57.8666V162.26H50.4866V167.16H57.4266V168.54H50.4866V173.62H57.8666V175H48.8666ZM59.4444 175L63.9444 169.42V170.22L59.6844 164.96H61.6444L64.8644 169.06H64.2844L67.4844 164.96H69.4244L65.2244 170.2V169.46L69.6844 175H67.7044L64.2644 170.62H64.8644L61.3844 175H59.4444ZM71.8675 179.32V167.28C71.8675 166.907 71.8475 166.527 71.8075 166.14C71.7808 165.74 71.7475 165.347 71.7075 164.96H73.2675L73.4875 167.34H73.2475C73.4608 166.553 73.8942 165.933 74.5475 165.48C75.2008 165.013 75.9808 164.78 76.8875 164.78C77.7942 164.78 78.5742 164.987 79.2275 165.4C79.8942 165.813 80.4142 166.407 80.7875 167.18C81.1608 167.953 81.3475 168.887 81.3475 169.98C81.3475 171.06 81.1608 171.987 80.7875 172.76C80.4275 173.533 79.9142 174.133 79.2475 174.56C78.5808 174.973 77.7942 175.18 76.8875 175.18C75.9942 175.18 75.2208 174.953 74.5675 174.5C73.9142 174.047 73.4808 173.427 73.2675 172.64H73.4875V179.32H71.8675ZM76.5675 173.86C77.5275 173.86 78.2875 173.533 78.8475 172.88C79.4208 172.213 79.7075 171.247 79.7075 169.98C79.7075 168.7 79.4208 167.733 78.8475 167.08C78.2875 166.413 77.5275 166.08 76.5675 166.08C75.6208 166.08 74.8608 166.413 74.2875 167.08C73.7275 167.733 73.4475 168.7 73.4475 169.98C73.4475 171.247 73.7275 172.213 74.2875 172.88C74.8608 173.533 75.6208 173.86 76.5675 173.86ZM88.6797 175.18C87.1064 175.18 85.8664 174.727 84.9597 173.82C84.053 172.9 83.5997 171.627 83.5997 170C83.5997 168.947 83.7997 168.033 84.1997 167.26C84.5997 166.473 85.1597 165.867 85.8797 165.44C86.5997 165 87.4264 164.78 88.3597 164.78C89.2797 164.78 90.053 164.973 90.6797 165.36C91.3064 165.747 91.7864 166.3 92.1197 167.02C92.453 167.727 92.6197 168.567 92.6197 169.54V170.14H84.8397V169.12H91.5597L91.2197 169.38C91.2197 168.313 90.9797 167.48 90.4997 166.88C90.0197 166.28 89.3064 165.98 88.3597 165.98C87.3597 165.98 86.5797 166.333 86.0197 167.04C85.4597 167.733 85.1797 168.673 85.1797 169.86V170.04C85.1797 171.293 85.4864 172.247 86.0997 172.9C86.7264 173.54 87.5997 173.86 88.7197 173.86C89.3197 173.86 89.8797 173.773 90.3997 173.6C90.933 173.413 91.4397 173.113 91.9197 172.7L92.4797 173.84C92.0397 174.267 91.4797 174.6 90.7997 174.84C90.133 175.067 89.4264 175.18 88.6797 175.18ZM95.4186 175V167.38C95.4186 166.98 95.4053 166.573 95.3786 166.16C95.3653 165.747 95.3386 165.347 95.2986 164.96H96.8586L97.0586 167.4L96.7786 167.42C96.9119 166.82 97.1453 166.327 97.4786 165.94C97.8119 165.553 98.2053 165.267 98.6586 165.08C99.1119 164.88 99.5853 164.78 100.079 164.78C100.279 164.78 100.452 164.787 100.599 164.8C100.759 164.813 100.905 164.847 101.039 164.9L101.019 166.34C100.819 166.273 100.632 166.233 100.459 166.22C100.299 166.193 100.112 166.18 99.8986 166.18C99.3119 166.18 98.7986 166.32 98.3586 166.6C97.9319 166.88 97.6053 167.24 97.3786 167.68C97.1653 168.12 97.0586 168.587 97.0586 169.08V175H95.4186ZM103.084 175V164.96H104.704V175H103.084ZM102.884 162.68V160.86H104.884V162.68H102.884ZM112.67 175.18C111.097 175.18 109.857 174.727 108.95 173.82C108.043 172.9 107.59 171.627 107.59 170C107.59 168.947 107.79 168.033 108.19 167.26C108.59 166.473 109.15 165.867 109.87 165.44C110.59 165 111.417 164.78 112.35 164.78C113.27 164.78 114.043 164.973 114.67 165.36C115.297 165.747 115.777 166.3 116.11 167.02C116.443 167.727 116.61 168.567 116.61 169.54V170.14H108.83V169.12H115.55L115.21 169.38C115.21 168.313 114.97 167.48 114.49 166.88C114.01 166.28 113.297 165.98 112.35 165.98C111.35 165.98 110.57 166.333 110.01 167.04C109.45 167.733 109.17 168.673 109.17 169.86V170.04C109.17 171.293 109.477 172.247 110.09 172.9C110.717 173.54 111.59 173.86 112.71 173.86C113.31 173.86 113.87 173.773 114.39 173.6C114.923 173.413 115.43 173.113 115.91 172.7L116.47 173.84C116.03 174.267 115.47 174.6 114.79 174.84C114.123 175.067 113.417 175.18 112.67 175.18ZM119.449 175V167.28C119.449 166.907 119.429 166.527 119.389 166.14C119.362 165.74 119.329 165.347 119.289 164.96H120.849L121.049 167.16H120.809C121.102 166.387 121.569 165.8 122.209 165.4C122.862 164.987 123.615 164.78 124.469 164.78C125.655 164.78 126.549 165.1 127.149 165.74C127.762 166.367 128.069 167.36 128.069 168.72V175H126.449V168.82C126.449 167.873 126.255 167.187 125.869 166.76C125.495 166.32 124.909 166.1 124.109 166.1C123.175 166.1 122.435 166.387 121.889 166.96C121.342 167.533 121.069 168.3 121.069 169.26V175H119.449ZM135.747 175.18C134.761 175.18 133.901 174.967 133.167 174.54C132.447 174.113 131.887 173.507 131.487 172.72C131.101 171.933 130.907 171 130.907 169.92C130.907 168.827 131.107 167.9 131.507 167.14C131.907 166.367 132.467 165.78 133.187 165.38C133.921 164.98 134.774 164.78 135.747 164.78C136.387 164.78 137.007 164.893 137.607 165.12C138.221 165.347 138.727 165.667 139.127 166.08L138.547 167.24C138.147 166.853 137.707 166.567 137.227 166.38C136.761 166.193 136.301 166.1 135.847 166.1C134.807 166.1 134.001 166.427 133.427 167.08C132.854 167.733 132.567 168.687 132.567 169.94C132.567 171.18 132.854 172.14 133.427 172.82C134.001 173.5 134.807 173.84 135.847 173.84C136.287 173.84 136.741 173.753 137.207 173.58C137.687 173.407 138.134 173.12 138.547 172.72L139.127 173.86C138.714 174.287 138.201 174.613 137.587 174.84C136.974 175.067 136.361 175.18 135.747 175.18ZM146.055 175.18C144.481 175.18 143.241 174.727 142.335 173.82C141.428 172.9 140.975 171.627 140.975 170C140.975 168.947 141.175 168.033 141.575 167.26C141.975 166.473 142.535 165.867 143.255 165.44C143.975 165 144.801 164.78 145.735 164.78C146.655 164.78 147.428 164.973 148.055 165.36C148.681 165.747 149.161 166.3 149.495 167.02C149.828 167.727 149.995 168.567 149.995 169.54V170.14H142.215V169.12H148.935L148.595 169.38C148.595 168.313 148.355 167.48 147.875 166.88C147.395 166.28 146.681 165.98 145.735 165.98C144.735 165.98 143.955 166.333 143.395 167.04C142.835 167.733 142.555 168.673 142.555 169.86V170.04C142.555 171.293 142.861 172.247 143.475 172.9C144.101 173.54 144.975 173.86 146.095 173.86C146.695 173.86 147.255 173.773 147.775 173.6C148.308 173.413 148.815 173.113 149.295 172.7L149.855 173.84C149.415 174.267 148.855 174.6 148.175 174.84C147.508 175.067 146.801 175.18 146.055 175.18Z" fill="#1C2752"/>
</svg>
